<svg width="1309" height="550" viewBox="0 0 1309 550" fill="none" xmlns="http://www.w3.org/2000/svg">
<path d="M461.183 443.684C467.885 437.379 483.222 424.212 484.024 425.424C483.609 424.784 483.394 424.462 484.501 423.104C485.624 421.751 488.043 419.339 492.834 414.455C493.406 415.338 502.516 406.994 508.262 401.668C502.879 405.531 496.198 411.437 482.388 422.845C477.034 428.875 467.075 436.628 457.06 444.1C447.066 451.609 436.824 458.595 431.376 463.912C440.88 457.88 450.79 452.512 461.199 443.689L461.183 443.684Z" fill="white"/>
<path d="M522.134 400.343L523.428 398.313C516.739 404.926 509.929 411.438 503.077 417.92C505.033 415.836 509.552 411.521 513.668 407.656C517.769 403.786 521.55 400.425 522.139 400.33L522.134 400.343Z" fill="white"/>
<path d="M587.081 329.195C572.564 343.131 596.341 321.209 582.129 335.557C586.762 330.631 592.333 325.112 587.081 329.195Z" fill="white"/>
<path d="M649.974 272.619L620.061 303.015L633.299 291.115L649.974 272.619Z" fill="url(#paint0_linear_16_293)"/>
<path d="M654.556 273.306C650.537 277.191 643.773 282.938 648.998 276.977C661.056 267.176 666.294 259.324 677.513 250.224L668.166 260.018C670.587 259.604 687.526 239.436 689.001 241.538C700.959 227.721 677.12 249.766 693.525 232.52C677.484 248.303 665.102 259.552 651.188 272.428C655.532 268.948 657.06 267.334 662.941 262.215C653.319 271.607 640.987 284.77 629.896 295.856C637.28 290.952 644.386 281.896 654.561 273.293L654.556 273.306Z" fill="url(#paint1_linear_16_293)"/>
<path d="M704.124 226.384C709.429 221.422 716.332 215.233 721.996 209.747C727.634 204.237 732.2 199.548 732.931 197.636C726.646 202.279 723.399 205.41 721.101 207.967C718.804 210.523 717.495 212.548 715.255 215.139C711.704 217.902 701 227.75 704.538 223.071C706.421 221.873 698.788 230.409 704.124 226.384Z" fill="url(#paint2_linear_16_293)"/>
<path d="M746.683 188.148C748.877 185.395 751.186 182.756 753.436 180.038L748.449 184.693L746.918 184.409C746.232 185.411 744.121 190.277 733.12 199.889C739.504 195.455 740.584 193.001 746.683 188.148Z" fill="url(#paint3_linear_16_293)"/>
<path d="M742.89 180.257C751.086 174.339 755.075 170.197 763.449 162.46C757.46 167.686 750.202 173.995 743.992 179.403C737.882 184.876 732.936 189.56 731.43 191.356L732.125 190.329C732.125 190.329 729.537 192.97 726.028 196.544C722.519 200.118 718.308 204.788 714.883 208.71C717.617 205.802 721.08 202.458 724.655 199.139C728.297 195.874 731.978 192.549 735.19 189.666C741.556 183.865 745.837 179.683 742.89 180.257Z" fill="url(#paint4_linear_16_293)"/>
<path d="M780.891 158.611C775.017 163.27 768.997 167.804 763.255 172.582L767.801 169.363L780.896 158.598L780.891 158.611Z" fill="url(#paint5_linear_16_293)"/>
<path d="M756.487 172.378C770.336 160.811 748.022 177.882 760.909 166.871C764.27 163.765 742.027 183.077 741.705 184.569C745.201 181.816 754.026 172.662 756.503 172.384L756.487 172.378Z" fill="url(#paint6_linear_16_293)"/>
<path d="M829.813 121.912C830.567 120.964 831.346 120.039 832.157 119.126C835.998 116.669 840.056 113.898 844.185 111.022C848.329 108.152 852.478 105.124 856.746 102.443C860.967 99.7008 865.06 97.0729 868.902 94.7611C870.823 93.6052 872.661 92.5357 874.407 91.5783C876.18 90.6448 877.887 89.8471 879.466 89.1634C877.764 89.5574 879.011 88.1476 878.931 87.6413C878.896 87.3973 878.525 87.3668 877.289 87.9122C876.07 88.4631 873.922 89.524 870.55 91.6845C868.867 93.4895 864.079 96.6087 865.326 96.6174C859.471 100.197 860.092 98.8399 856.061 101.099C851.414 104.601 845.45 109.025 839.58 113.135C836.672 115.214 833.827 117.258 831.24 119.118C828.674 121.015 826.491 122.859 824.762 124.402C828.309 121.551 829.295 120.975 832.137 119.133C824.679 125.516 819.662 128.641 815.785 130.955C811.929 133.305 809.213 134.844 806.784 138.454C811.712 133.575 822.717 127.714 829.798 121.906L829.813 121.912Z" fill="url(#paint7_linear_16_293)"/>
<path d="M824.132 118.504L811.077 127.791C814.208 124.01 826.616 116.057 828.05 113.83C826.66 113.785 813.738 123.134 818.046 119.265C818.504 122.424 800.656 132.397 809.559 129.669C805.449 132.783 803.113 134.617 801.503 135.68C799.908 136.749 799.086 137.109 798.244 137.475C796.555 138.222 794.738 139.038 786.26 145.797C785.015 147.396 783.801 149.005 782.608 150.652C791.719 142.844 797.468 138.633 803.108 134.34C808.789 130.076 814.691 126.021 824.121 118.485L824.132 118.504Z" fill="url(#paint8_linear_16_293)"/>
<path d="M855.337 94.342C844.972 100.648 845.993 100.706 846.707 100.844C847.433 101.001 847.927 101.321 836.936 108.606L848.224 100.631L859.818 92.9667L855.341 94.3291L855.337 94.342Z" fill="url(#paint9_linear_16_293)"/>
<path d="M959.731 40.8587C963.688 39.5431 967.549 38.1065 971.57 36.9009C964.303 37.7638 948.051 47.5943 959.731 40.8587Z" fill="white"/>
<path d="M1043.67 14.6039C1048.07 13.0563 1047.47 12.7985 1044.44 13.283C1041.41 13.7859 1035.9 14.9264 1030.72 16.5598C1035.46 15.2336 1039.2 14.5349 1041.49 14.2353C1043.79 13.9357 1044.63 14.0608 1043.68 14.591L1043.67 14.6039Z" fill="url(#paint10_linear_16_293)"/>
<path d="M1184.98 8.2285C1177.1 8.13469 1173.89 7.70204 1172.78 7.25082C1178.52 7.56692 1183.1 7.86311 1184.98 8.2285Z" fill="url(#paint11_linear_16_293)"/>
<path d="M928.559 60.2401C926.493 61.3155 924.258 62.4757 922.179 63.4887C924.361 62.3819 926.397 61.3396 928.559 60.2401Z" fill="url(#paint12_linear_16_293)"/>
<path d="M932.733 58.1186C931.356 58.8166 929.955 59.5347 928.559 60.2401C930.124 59.45 931.521 58.7447 932.733 58.1186Z" fill="url(#paint13_linear_16_293)"/>
<path d="M1080.95 12.5206L1080.88 12.5373C1080.3 12.5934 1079.77 12.6348 1079.19 12.6908C1079.78 12.6402 1080.36 12.5712 1080.95 12.5335L1080.95 12.5206Z" fill="url(#paint14_linear_16_293)"/>
<path d="M564.145 361.695C561.504 364.389 559.416 366.456 557.71 368.079C559.828 365.98 561.974 363.847 564.072 361.755L564.161 361.7L564.145 361.695Z" fill="url(#paint15_linear_16_293)"/>
<path d="M554.552 367.391C565.146 355.507 569.068 357.219 587.013 338.522C579.719 346.006 572.001 353.802 564.072 361.755C551.919 370.943 571.58 353.132 554.557 367.379L554.552 367.391Z" fill="url(#paint16_linear_16_293)"/>
<path d="M708.781 215.184L709.409 214.539C710.532 213.432 709.977 214.017 708.781 215.184Z" fill="url(#paint17_linear_16_293)"/>
<path d="M-118.827 389.694L-119.306 389.871C-123.146 386.118 -128.323 383.425 -132.049 379.596C-128.168 383.379 -122.816 386.019 -118.816 389.712L-118.827 389.694Z" fill="white"/>
<path d="M-117.835 391.74C-114.6 394.945 -111.344 398.143 -107.995 401.273C-104.661 404.398 -101.394 407.614 -97.967 410.67C-118.708 392.878 -138.248 374.05 -156.949 354.666C-175.56 335.227 -193.189 315.124 -209.974 294.554L-206.127 298.237C-206.208 297.976 -204.964 299.36 -202.723 301.994C-201.613 303.315 -200.248 304.944 -198.659 306.826C-197.051 308.7 -195.236 310.821 -193.246 313.135C-185.344 322.457 -174.435 334.845 -163.168 346.912C-140.831 371.207 -116.36 393.596 -117.831 391.727L-117.835 391.74Z" fill="white"/>
<path d="M-111.526 396.602C-104.86 401.244 -100.189 405.784 -94.9693 410.49C-92.3742 412.86 -89.7448 415.329 -86.7164 417.896C-83.6634 420.443 -80.2559 423.116 -76.2427 425.989C-86.9716 418.37 -94.8084 413.066 -103.833 404.46L-111.541 396.597L-111.526 396.602Z" fill="white"/>
<path d="M-44.885 439.65C-43.7798 440.448 -42.7055 441.235 -41.6265 442.009C-42.9875 441.149 -44.2188 440.364 -45.1385 439.777L-44.885 439.65Z" fill="url(#paint18_linear_16_293)"/>
<path d="M-45.1385 439.777L-45.759 440.107C-47.849 438.22 -47.0811 438.551 -45.1385 439.777Z" fill="url(#paint19_linear_16_293)"/>
<path d="M-41.6265 442.009C-38.5712 443.963 -34.9697 446.285 -33.0167 447.385L-35.9824 445.129C-31.7751 448.043 -23.9776 452.724 -22.2365 454.371C-30.4416 448.589 -30.8777 448.84 -31.71 449.326L-18.3084 458.705C-22.1954 458.555 -30.0254 450.691 -41.6311 442.022L-41.6265 442.009Z" fill="url(#paint20_linear_16_293)"/>
<path d="M22.0661 484.56C18.473 482.849 4.32985 474.335 12.6171 479.885C10.1589 478.693 7.40508 477.063 4.54731 475.237C9.35001 478.087 9.80271 477.741 10.957 478.108C12.1358 478.454 14.0682 479.416 22.0661 484.56Z" fill="url(#paint21_linear_16_293)"/>
<path d="M4.55188 475.224C3.40558 474.542 2.1297 473.784 0.452506 472.74C1.85169 473.541 3.23261 474.393 4.55188 475.224Z" fill="url(#paint22_linear_16_293)"/>
<path d="M51.2624 501.665L56.9928 504.396C55.3458 503.608 53.8193 502.921 52.3391 502.25L51.2624 501.665Z" fill="url(#paint23_linear_16_293)"/>
<path d="M-318.974 141.637C-308.577 159.764 -295.143 182.097 -277.46 207.227C-276.383 206.003 -270.17 217.244 -267.596 218.014C-276.516 204.914 -259.942 229.694 -241.23 254.322C-238.926 257.413 -236.567 260.496 -234.216 263.502C-231.88 266.504 -229.616 269.465 -227.384 272.27C-222.891 277.848 -218.887 282.947 -215.558 286.866C-208.978 294.778 -205.793 298.37 -209.664 293.289L-215.112 287.662L-208.664 293.065C-199.395 305.232 -186.745 322.003 -178.894 329.367C-178.496 329.957 -183.871 324.124 -191.794 314.911C-199.781 305.732 -210.143 293.075 -220.18 280.331C-240.263 254.825 -258.432 228.667 -257.193 230.801C-259.617 225.554 -234.262 261.923 -204.073 298.026C-189.061 316.113 -172.912 334.127 -159.979 347.611C-158.374 349.296 -156.816 350.921 -155.337 352.474C-153.833 354.007 -152.388 355.461 -151.022 356.844C-148.285 359.597 -145.89 362.041 -143.83 364.061C-139.671 368.087 -137.057 370.55 -136.535 370.938L-133.273 376.266C-128.756 380.361 -127.038 380.754 -123.084 384.186C-119.077 387.564 -115.243 390.649 -111.552 393.697C-104.055 399.662 -96.9337 405.319 -88.8816 411.727L-86.2454 415.544C-91.8016 410.516 -95.5459 407.52 -99.3273 404.483C-103.064 401.418 -107.015 398.466 -112.839 393.458C-102.944 402.301 -97.1158 407.542 -91.8119 412.206C-86.5616 416.923 -81.7373 420.982 -73.7732 427.344C-73.5128 426.612 -76.7474 423.696 -77.5015 422.936C-78.231 422.156 -76.6166 423.67 -66.1772 431.274C-63.4953 433.79 -65.8176 432.704 -66.5209 432.73C-66.8748 432.749 -66.8229 433.042 -65.5361 434.209C-64.8951 434.798 -63.9469 435.598 -62.5819 436.691C-61.1924 437.764 -59.3817 439.117 -57.0554 440.826C-54.3072 442.961 -51.9421 444.757 -49.8813 446.285C-47.7914 447.781 -45.9857 449.001 -44.3839 450.063C-41.2064 452.162 -38.8522 453.548 -36.5921 454.858C-34.303 456.134 -32.0834 457.314 -29.1892 459.037C-26.2749 460.753 -22.7395 463.066 -17.5903 466.358C-22.0939 463.252 -26.4427 459.955 -30.8144 456.723C-27.0843 459.221 -21.7753 462.844 -16.396 466.319C-13.7233 468.079 -11.0859 469.841 -8.67966 471.522C-6.25518 473.15 -4.04822 474.658 -2.32992 475.978C-4.4718 474.58 -7.53563 472.797 -10.813 470.735C-14.0949 468.685 -17.6805 466.514 -21.0143 464.562C-27.6193 460.579 -33.1635 457.422 -33.3759 458.215C-31.1832 459.617 -28.3837 461.509 -25.3016 463.632C-22.224 465.768 -18.7475 468.002 -15.3799 470.299C-13.6839 471.437 -12.0033 472.57 -10.3797 473.668C-8.72707 474.733 -7.1115 475.756 -5.59928 476.727C-2.57028 478.658 0.0790948 480.337 2.02003 481.519L-3.31527 479.435C-1.35607 480.956 0.475831 482.201 2.28892 483.352C4.11568 484.464 5.91736 485.452 7.79151 486.48C11.5689 488.502 15.5153 490.831 20.8112 494.247C31.5264 499.56 15.3606 489.459 21.4009 492.343C22.3965 493.059 27.7632 496.471 33.9811 499.882C40.2372 503.234 47.1179 506.88 50.9849 508.211C49.9939 507.092 47.8668 505.945 45.2089 504.436C42.5372 502.966 39.2 501.317 35.6252 499.554C32.0168 497.838 28.2776 495.756 24.6492 493.656C21.0207 491.557 17.5459 489.366 14.7292 487.034C17.7936 488.962 20.93 490.786 24.0663 492.61C27.2073 494.421 30.3053 496.303 33.4799 498.068C36.812 499.194 36.5409 498.736 34.3688 497.472C32.1921 496.221 28.2428 493.949 24.0703 491.67C21.9833 490.509 19.8362 489.37 17.897 488.232C15.9577 487.094 14.1835 486.029 12.7609 485.147C9.93114 483.389 8.58961 482.377 10.3633 482.906C14.2098 484.49 17.8211 486.54 21.4386 488.622C25.0562 490.703 28.5899 492.972 32.0973 495.217C35.6184 497.424 39.2188 499.456 42.8079 501.325C44.6169 502.242 46.4043 503.124 48.2419 503.863C50.0933 504.565 51.9566 505.183 53.8501 505.668C49.3837 503.386 40.1796 498.364 32.5608 494.108C25.0214 489.677 19.0553 486.096 21.0727 486.769C25.7733 489.858 30.0964 492.103 34.9801 494.432C37.4394 495.523 40.0329 496.676 42.8947 497.954C45.761 499.218 48.79 500.758 52.3562 502.3C57.8565 505.239 63.2928 508.357 68.9553 511.035C76.5563 513.533 70.6513 511.001 65.1345 508.158C77.4384 514.324 94.7733 521.135 113.886 526.754C132.996 532.429 153.843 536.782 172.982 539.833C178.658 540.374 181.677 540.621 183.173 540.661C184.669 540.7 184.632 540.513 184.205 540.347C183.793 540.186 182.987 539.914 182.929 539.734C182.872 539.555 183.563 539.467 186.114 539.419C189.119 539.951 192.652 540.366 196.455 540.704C197.4 540.78 198.372 540.879 199.346 540.921C200.326 540.95 201.309 540.967 202.308 540.989C204.295 541.015 206.322 541.026 208.345 541.049C210.377 541.048 212.389 541.053 214.4 541.058C216.382 540.952 218.344 540.853 220.236 540.758C224.027 540.542 227.586 540.445 230.659 540.249C234.335 540.064 240.581 538.216 236.983 537.936L229.369 538.748L213.974 539.619L206.205 539.695C206.916 539.355 206.102 538.863 203.73 538.454C202.536 538.247 200.968 538.066 199.002 537.932C197.028 537.723 194.654 537.516 191.877 537.369C195.811 538.854 184.765 538.085 172.535 536.157C171.001 535.93 169.464 535.761 167.913 535.485C166.378 535.214 164.847 534.931 163.346 534.658C160.357 534.131 157.486 533.661 154.974 533.305C149.941 532.472 146.277 531.937 145.618 532.571L146.244 531.346C132.973 529.121 119.822 525.78 106.772 522.055L107.858 522.614C107.925 522.522 105.892 521.843 102.495 520.752C99.0925 519.63 94.2418 518.283 88.8774 516.232C86.1692 515.255 83.3114 514.211 80.3566 513.146C77.411 512.056 74.4722 510.752 71.486 509.531C68.538 508.252 65.529 507.096 62.7346 505.727C59.931 504.383 57.2291 503.047 54.7122 501.776C56.2353 502.375 59.4903 503.865 63.2158 505.594C66.955 507.284 71.273 509.007 74.7188 510.448C76.4439 511.163 77.9778 511.78 79.1401 512.222C80.3161 512.625 81.1359 512.859 81.4053 512.882C81.9579 512.89 80.3173 512.134 75.3787 509.568C79.2589 511.106 83.9691 512.751 89.2102 514.758C94.4148 516.868 100.36 518.749 106.649 520.983C119.317 525.05 133.813 529.347 148.713 531.775L143.054 529.721C146.959 530.312 150.997 531.11 155.162 531.75C159.334 532.32 163.625 532.947 168.003 533.62C172.39 534.122 176.874 534.644 181.409 535.17C183.676 535.483 185.961 535.6 188.258 535.779C190.555 535.959 192.857 536.125 195.169 536.31C213.644 537.518 232.503 537.111 249.19 534.948L244.389 536.196C242.767 536.56 241.143 536.881 239.509 537.227C241.022 537.171 242.586 537.118 244.185 537.064C245.776 536.935 247.402 536.803 249.049 536.664C252.357 536.392 255.76 536.096 259.127 535.758C262.463 535.308 265.744 534.722 268.853 534.132C271.97 533.518 274.931 532.905 277.53 531.99C274.036 532.833 271.802 533.11 270.522 533.293C269.232 533.456 268.861 533.426 269.002 533.273C269.284 532.968 271.626 532.237 272.788 531.753C282.113 529.449 293.731 526.846 305.824 523.152C317.929 519.52 330.675 515.161 342.343 509.926C342.343 509.926 341.342 510.642 342.468 510.405C346.558 508.616 350.523 506.594 354.544 504.707C358.51 502.729 362.422 500.659 366.367 498.645C377.711 493.15 381.954 491.661 389.304 488.613C393.212 486.165 403.065 480.372 398.8 481.969C396.637 483.17 394.453 484.333 393.099 485.213C398.409 481.31 400.426 480.13 402.899 478.837C405.356 477.539 408.275 476.115 414.91 471.22C404.973 479.154 419.493 470.388 419.122 472.166C434.906 460.867 419.037 469.473 420.665 467.677C425.675 464.521 429.607 462.053 432.985 459.924C436.367 457.781 439.243 456.038 442.039 454.18C447.678 450.523 453.273 446.794 462.605 439.585C463.12 438.234 449.036 449.486 446.74 449.987C452.249 446.111 458.419 441.254 459.13 440.276C455.197 443.091 451.21 445.858 447.224 448.625C457.327 441.59 466.946 434.353 476.483 426.566C485.994 418.756 495.464 410.424 505.259 401.18L503.373 402.334C507.514 398.594 511.682 394.877 515.77 391.09L512.516 396.144C518.882 389.807 527.023 384.043 529.585 379.959L527.067 382.162L534.9 374.088L527.627 383.027C538.631 373.604 550.479 357.895 567.411 341.705C570.028 340.594 562.95 347.764 555.18 355.657C547.411 363.551 538.933 372.119 538.878 373.982C544.818 368.941 554.696 360.002 557.51 356.282C556.276 356.481 552.262 360.353 548.208 364.24C561.864 349.158 585.555 329.044 593.035 318.543L581.309 328.78C593.983 316.071 604.41 309.788 607.532 304.615L599.483 316.129C611.538 302.622 628.427 286.359 639.877 273.823C638.972 272.56 622.292 291.069 622.916 290.046L627.856 283.666C647.599 265.623 633.985 278.924 657.824 257.024L657.224 256.173C666.145 249.63 684.728 227.816 679.002 237.044L672.164 242.707L673.669 242.966C682.386 234.164 691.285 225.485 700.143 216.776C698.159 219.821 711.25 207.405 708.646 211.459L717.979 201.414C723.974 198.319 700.851 219.865 700.9 221.779C701.88 221.953 706.518 217.449 708.793 215.247C703.181 221.272 698.391 225.274 693.402 229.103C688.413 232.933 683.33 236.686 677.401 242.381L672.343 248.749L671.458 247.479C666.753 252.365 663.339 257.087 662.087 259.146C648.765 269.135 638.275 282.924 620.401 299.763C634.246 284.981 609.942 307.946 612.108 305.27C604.116 313.056 586.427 334.015 578.138 339.509C572.897 343.611 587.078 329.252 575.671 339.907C568.573 347.084 564.221 352.442 569.483 348.333C553.729 364.334 534.237 382.698 516.05 399.339L519.605 394.711C507.612 404.621 497.422 415.419 492.058 421.475C490.131 422.6 489.45 423.588 490.808 421.624C486.731 424.547 483.567 427.1 480.742 429.628C477.875 432.127 475.336 434.584 472.519 437.332C466.807 442.757 460.011 449.376 446.623 458.964C447.861 458.898 451.512 456.735 455.775 453.676C459.998 450.587 464.908 446.686 468.679 443.206L467.739 445.998C490.139 428.538 513.401 407.185 529.238 391.098L522.506 398.955C530.585 393.024 532.716 390.249 534.789 387.642C536.876 385.04 538.841 382.539 546.469 376.998C555.848 367.215 538.687 383.266 545.564 375.735C552.881 369.36 546.004 379.235 557.712 368.123C536.25 389.392 512.738 411.741 487.437 433.064C462.157 454.38 434.989 474.605 406.791 491.627C405.923 492.506 408.936 490.768 411.94 489.056C410.823 489.904 409.145 491.059 406.98 492.462C404.778 493.822 402.08 495.454 398.98 497.291C392.738 500.936 384.672 505.265 375.341 509.882C356.599 519.002 332.38 528.781 307.246 535.614C282.231 542.65 256.4 546.558 236.455 547.925C231.503 548.424 226.855 548.51 222.723 548.706C218.596 548.89 214.952 549.13 211.851 549.113C205.684 549.224 201.823 549.488 201.035 549.946C199.184 549.636 201.201 549.382 201.74 549.183C202.278 548.94 201.367 548.964 193.619 548.44C192.238 548.615 188.264 548.709 191.943 549.495C172.222 547.25 149.298 543.954 125.725 538.039C124.252 537.69 122.769 537.322 121.296 536.972C119.83 536.553 118.365 536.133 116.879 535.721C113.933 534.877 110.972 534.028 108.01 533.178L105.791 532.534L103.584 531.808L99.1746 530.342L90.365 527.386C87.4793 526.274 84.5935 525.162 81.7078 524.049L77.4069 522.376C75.9672 521.836 74.5457 521.244 73.1579 520.606C70.3532 519.363 67.5686 518.113 64.7947 516.882C63.4178 516.262 62.0409 515.643 60.6685 515.01C59.3007 514.365 57.9866 513.666 56.6434 513.001C57.3261 514.011 47.6002 509.773 47.2166 510.071C45.4241 509.058 43.5049 507.913 41.4469 506.718C39.3998 505.542 37.2094 504.33 34.9219 503.097C30.3196 500.709 25.5665 497.963 20.7479 495.354C15.92 492.77 11.2578 490.013 6.9181 487.472C2.56923 484.957 -1.28244 482.459 -4.39707 480.281L-0.635057 483.471C-14.3204 475.134 -27.5817 466.238 -40.6036 457.109C-41.2544 456.791 -40.2908 457.597 -38.7518 458.737C-37.1881 459.857 -35.0982 461.353 -33.55 462.467C-37.9663 459.653 -40.5135 457.735 -41.9549 456.369C-43.4209 455.023 -43.861 454.258 -44.0539 453.726C-47.0858 451.853 -50.1622 450.007 -53.1604 448.088L-62.1567 442.285C-73.9827 432.38 -90.447 419.943 -103.177 408.819C-115.936 397.728 -128.425 389.005 -139.38 376.991C-164.985 352.563 -189.876 326.174 -210.815 299.119C-218.439 291.749 -222.952 283.834 -233.612 270.159C-232.042 272.483 -230.413 274.784 -228.783 277.086C-240.504 263.613 -228.841 275.98 -238.359 264.317C-245.216 256.597 -242.002 262.748 -233.035 273.418C-228.105 280.454 -231.847 276.475 -235.858 271.691C-269.055 227.788 -298.987 179.775 -318.974 141.637Z" fill="url(#paint24_linear_16_293)"/>
<path d="M1110.33 6.00443C1111.28 5.90597 1112.5 5.78647 1114.03 5.64477L1114.04 5.63189C1126.4 4.63336 1124.6 5.33904 1121.58 6.17421C1121.58 6.36393 1120.6 6.67423 1118.13 7.1585C1118.89 6.88109 1120.34 6.51678 1121.58 6.17421C1121.57 5.78537 1117.46 5.90277 1113.68 6.06751C1112.08 6.1497 1110.54 6.22653 1109.41 6.28165C1107.27 6.92405 1104.6 7.67141 1101.4 8.26451C1099.37 8.65729 1097.14 8.99163 1094.69 9.26766C1092.26 9.60612 1089.63 9.88611 1086.79 10.051C1075.31 12.1325 1064.06 14.3101 1052.86 16.7054C1053.75 16.6747 1054.62 16.6572 1055.52 16.641C1060.47 16.5328 1065.89 16.0843 1077.34 13.9438C1064.46 15.8392 1085.55 11.5617 1074.7 12.9321C1086.82 9.91697 1103.66 9.82009 1125.95 7.28725C1121.92 7.63596 1120.66 7.67872 1120.89 7.36997C1121.12 7.10534 1122.86 6.56444 1124.96 6.32572C1128.7 6.23809 1133.02 6.05039 1137.62 5.80341C1142.23 5.68853 1147.13 5.56385 1152.02 5.44664C1156.92 5.37892 1161.86 5.51113 1166.49 5.52099C1168.78 5.51125 1171.04 5.64847 1173.19 5.7473C1174.98 5.83996 1176.68 5.92404 1178.29 6.00354L1179.27 6.05179C1178.61 5.79059 1178.62 5.51895 1178.86 5.32952C1185.56 5.82737 1189.91 6.4892 1194.43 7.00936C1196.7 7.3098 1199 7.53312 1201.66 8.00165C1204.31 8.46471 1207.33 8.9895 1211.04 9.64148C1212.78 9.89521 1214.53 10.1287 1216.3 10.4245C1218.07 10.7204 1219.85 11.0346 1221.67 11.3468C1225.28 11.9788 1228.97 12.5372 1232.7 13.2258C1240.18 14.6525 1247.87 16.011 1255.68 17.6978C1271.28 20.9262 1271.92 17.3453 1287.65 21.5754C1303.39 25.7487 1309 18 1309 18C1270.16 6.42999 1264.65 11.5928 1221.67 5.71712C1200.19 2.75995 1178.91 1.10344 1158.66 0.96077C1138.41 0.799679 1119.23 2.16344 1101.76 4.14791L1105.35 4.00558C1097.99 5.21759 1079.54 7.66594 1078.42 7.13681L1075.77 8.97209C1063.07 11.6525 1065.8 10.018 1068.16 8.4227C1069.34 7.6278 1070.42 6.83864 1069.37 6.61119C1068.35 6.42041 1065.14 6.61159 1057.96 8.30196C1065.49 7.02749 1066.39 7.72316 1063.97 8.78641C1061.56 9.93034 1055.93 11.6637 1050.43 12.7344C1053.13 12.5203 1053.86 14.6493 1059.67 13.2661C1064.96 12.5408 1070.32 12.0575 1075.66 11.5376C1075.63 10.9908 1077.21 10.3383 1079.77 9.65287C1082.34 9.04806 1085.9 8.42867 1089.75 7.84356C1093.59 7.20901 1097.78 6.84535 1101.55 6.49161L1102.12 6.44099C1105.67 6.12582 1108.82 5.84593 1111.05 5.78607L1110.63 5.91406C1110.53 5.94384 1110.43 5.9739 1110.33 6.00443Z" fill="url(#paint25_linear_16_293)"/>
<path d="M1047.89 17.0568C1045.05 17.3538 1041.69 17.8682 1037.2 18.8912C1036.59 19.2743 1035.94 19.6338 1036.67 19.5726C1037.44 19.4113 1038.2 19.2623 1038.92 19.1266C1037.72 19.4096 1037.03 19.5424 1036.67 19.5726C1028.62 21.2523 1018.19 24.2701 1008.49 27.5467C1010.24 27.0409 1011.98 26.5526 1013.73 26.1146C1026.92 22.5586 1039.86 19.4855 1052.86 16.7054C1051.29 16.7598 1049.69 16.8553 1047.89 17.0568Z" fill="url(#paint26_linear_16_293)"/>
<path fill-rule="evenodd" clip-rule="evenodd" d="M883.254 80.7522L875.922 84.1401L875.886 84.142C875.673 85.0361 874.429 86.143 872.524 87.4494C870.614 88.7686 868.113 90.3843 865.228 92.153C864.892 92.3611 864.55 92.5716 864.204 92.7845C863.796 93.0357 863.382 93.2904 862.962 93.5482C860.705 94.9346 858.297 96.4147 855.868 97.976C852.621 100.079 849.302 102.287 846.44 104.774C848.725 102.748 851.109 100.818 853.488 98.8921L854.106 98.3921L861.866 92.0876L869.253 88.9362C873.033 86.2116 873.722 85.5443 872.422 85.8789C871.527 86.1093 869.811 86.9345 867.699 88.084C868.996 87.3618 870.462 86.554 872.055 85.6759L872.098 85.6522C874.139 84.5278 876.388 83.2885 878.76 81.9662L883.254 80.7522ZM894.331 73.0154L893.946 73.2311C892.943 73.8204 891.936 74.4087 890.931 74.9962C889.629 75.7575 888.329 76.5176 887.04 77.2771C884.205 78.914 881.406 80.4918 878.76 81.9662L878.741 81.9716C884.144 78.5504 889.345 75.6131 894.331 73.0154ZM912.84 61.873L911.52 62.611L912.719 62.1684C909.429 64.3434 905.32 66.8208 900.854 69.3741L899.961 69.8721C898.117 70.9007 896.233 71.951 894.331 73.0154C902.506 68.7563 910.104 65.4106 917.069 62.3436L917.072 62.342C917.832 62.0074 918.585 61.676 919.33 61.3471C922.093 60.2398 924.749 59.1528 927.336 58.0947L927.354 58.0869C930.389 56.8454 933.326 55.6436 936.224 54.4954C937.504 53.9752 938.76 53.4505 940.001 52.9201C941.359 52.3397 942.697 51.7528 944.024 51.1579C946.59 50.043 949.11 48.9117 951.56 47.6833C951.866 47.5153 952.172 47.3488 952.479 47.1838C958.197 44.1088 964.154 41.5293 970.066 38.9864C976.408 36.4773 982.728 34.0326 989.242 31.9177C993.812 30.3178 998.485 28.893 1003.19 27.4582L1003.2 27.4546C1005.13 26.8675 1007.06 26.2786 1008.99 25.6755C1012.17 24.7854 1015.35 23.8463 1018.56 22.8997L1018.56 22.8985L1018.57 22.8972C1022.16 21.8373 1025.78 20.768 1029.47 19.7477C1036.04 17.3648 1032.7 18.1306 1027.5 19.4687C1025.25 20.0124 1022.68 20.7348 1020.42 21.3717L1020.41 21.3763L1020.4 21.377C1017.42 22.2195 1014.96 22.9115 1014.46 22.8415C1015.91 21.3011 1019.33 20.5186 1023.07 19.7319L1023.4 19.6678C1027.09 18.9609 1031.02 18.2072 1033.75 16.5799C1034.04 16.1042 1032.33 16.278 1029.42 16.8375C1026.52 17.4281 1022.36 18.2945 1017.91 19.5487C1012.38 20.979 1006.3 22.7743 1001.03 24.3334C997.675 25.3227 994.647 26.2168 992.289 26.8622C983.591 30.2768 982.738 30.956 980.977 32.3579C980.712 32.569 980.426 32.7964 980.09 33.052C978.528 33.2026 974.899 34.3172 971.397 35.3928L971.394 35.3937C968.287 36.348 965.28 37.2714 963.906 37.4636C960.48 39.161 957.283 40.6138 954.274 41.9807L954.272 41.9817L954.27 41.9828C952.932 42.5907 951.631 43.1817 950.364 43.7696C948.332 44.7017 946.34 45.5534 944.388 46.3883L944.386 46.3892C942.375 47.249 940.407 48.091 938.478 48.9845C933.395 51.238 928.348 53.5361 922.902 56.4737C922.231 56.7711 920.049 57.8007 917.881 58.8779C915.292 60.199 912.763 61.6333 912.84 61.873ZM922.256 56.8243C919.667 58.2365 916.986 59.7966 914.165 61.5675C913.265 61.8845 912.868 61.9632 912.84 61.873L916.633 59.7519L921.857 57.0192C922.004 56.9476 922.137 56.8828 922.256 56.8243ZM922.902 56.4737C922.687 56.5895 922.472 56.7064 922.256 56.8243C923.173 56.3746 923.29 56.3017 922.902 56.4737ZM864.636 89.8145C865.501 89.3143 866.532 88.7338 867.699 88.084C866.745 88.603 865.711 89.1881 864.636 89.8145ZM996.91 28.1713L1002.28 24.5355L1007.51 23.5552L996.91 28.1713Z" fill="url(#paint27_linear_16_293)"/>
<path d="M944.024 51.1579C942.697 51.7528 941.359 52.3397 940.001 52.9201C940.549 52.7313 940.847 52.7013 940.783 52.9016C938.482 54.4435 935.445 55.9557 932.208 57.3966C929.018 58.8979 925.628 60.3281 922.561 61.5834C919.483 62.8203 916.814 64.0289 914.989 64.9149C913.16 65.8137 912.175 66.4339 912.59 66.6827C915.302 65.6482 918.566 63.9854 922.226 62.3326C925.859 60.6561 929.707 58.7664 933.379 57.0311C937.088 55.338 940.577 53.7259 943.392 52.4968C946.196 51.2494 948.427 50.4929 949.453 50.2928C952.329 48.5498 943.22 52.1026 951.432 47.8982C957.999 45.0492 960.972 44.1079 963.277 43.4358C965.592 42.782 967.265 42.4211 971.456 41.1307L978.243 37.274C979.922 37.9719 989.857 34.047 1002.1 29.7839C1004.17 29.0332 1006.31 28.2834 1008.49 27.5467C1007.17 27.931 1005.84 28.3253 1004.51 28.7151C1001.43 29.631 998.292 30.4864 995.194 31.4847C988.995 33.4944 982.647 35.4805 976.329 37.8243C969.919 40.0344 963.58 42.6315 957.013 45.2346L955.659 45.8164C954.603 46.2696 953.543 46.7249 952.479 47.1838C952.172 47.3488 951.866 47.5153 951.56 47.6833C949.11 48.9117 946.59 50.043 944.024 51.1579Z" fill="url(#paint28_linear_16_293)"/>
<path fill-rule="evenodd" clip-rule="evenodd" d="M592.003 333.235C589.123 335.394 586.221 337.568 586.731 336.237L574.391 347.515C579.435 342.653 584.69 337.52 589.858 332.471C603.657 318.991 616.846 306.109 623.781 300.559L621.592 305.108C618.584 308.191 614.448 312.013 610.427 315.728L610.421 315.733L610.418 315.737C603.045 322.548 596.061 329.001 597.127 329.893C596.632 329.767 594.327 331.494 592.006 333.233L592.003 333.235ZM597.127 329.893C597.145 329.897 597.16 329.904 597.173 329.914C597.183 329.921 597.191 329.929 597.198 329.938C597.171 329.925 597.147 329.91 597.127 329.893ZM609.25 314.533L604.315 320.901C595.858 328.432 600.841 323.27 605.621 318.319C606.942 316.95 608.248 315.597 609.25 314.533Z" fill="url(#paint29_linear_16_293)"/>
<defs>
<linearGradient id="paint0_linear_16_293" x1="-246.13" y1="-63.3735" x2="1160.34" y2="436.375" gradientUnits="userSpaceOnUse">
<stop stop-color="#FFC700"/>
<stop offset="0.477083" stop-color="#FF6600"/>
<stop offset="0.9875" stop-color="#EA4335"/>
</linearGradient>
<linearGradient id="paint1_linear_16_293" x1="-246.13" y1="-63.3735" x2="1160.34" y2="436.375" gradientUnits="userSpaceOnUse">
<stop stop-color="#FFC700"/>
<stop offset="0.477083" stop-color="#FF6600"/>
<stop offset="0.9875" stop-color="#EA4335"/>
</linearGradient>
<linearGradient id="paint2_linear_16_293" x1="-246.13" y1="-63.3735" x2="1160.34" y2="436.375" gradientUnits="userSpaceOnUse">
<stop stop-color="#FFC700"/>
<stop offset="0.477083" stop-color="#FF6600"/>
<stop offset="0.9875" stop-color="#EA4335"/>
</linearGradient>
<linearGradient id="paint3_linear_16_293" x1="-246.13" y1="-63.3735" x2="1160.34" y2="436.375" gradientUnits="userSpaceOnUse">
<stop stop-color="#FFC700"/>
<stop offset="0.477083" stop-color="#FF6600"/>
<stop offset="0.9875" stop-color="#EA4335"/>
</linearGradient>
<linearGradient id="paint4_linear_16_293" x1="-246.13" y1="-63.3735" x2="1160.34" y2="436.375" gradientUnits="userSpaceOnUse">
<stop stop-color="#FFC700"/>
<stop offset="0.477083" stop-color="#FF6600"/>
<stop offset="0.9875" stop-color="#EA4335"/>
</linearGradient>
<linearGradient id="paint5_linear_16_293" x1="-246.13" y1="-63.3735" x2="1160.34" y2="436.375" gradientUnits="userSpaceOnUse">
<stop stop-color="#FFC700"/>
<stop offset="0.477083" stop-color="#FF6600"/>
<stop offset="0.9875" stop-color="#EA4335"/>
</linearGradient>
<linearGradient id="paint6_linear_16_293" x1="-246.13" y1="-63.3735" x2="1160.34" y2="436.375" gradientUnits="userSpaceOnUse">
<stop stop-color="#FFC700"/>
<stop offset="0.477083" stop-color="#FF6600"/>
<stop offset="0.9875" stop-color="#EA4335"/>
</linearGradient>
<linearGradient id="paint7_linear_16_293" x1="-246.13" y1="-63.3735" x2="1160.34" y2="436.375" gradientUnits="userSpaceOnUse">
<stop stop-color="#FFC700"/>
<stop offset="0.477083" stop-color="#FF6600"/>
<stop offset="0.9875" stop-color="#EA4335"/>
</linearGradient>
<linearGradient id="paint8_linear_16_293" x1="-246.13" y1="-63.3735" x2="1160.34" y2="436.375" gradientUnits="userSpaceOnUse">
<stop stop-color="#FFC700"/>
<stop offset="0.477083" stop-color="#FF6600"/>
<stop offset="0.9875" stop-color="#EA4335"/>
</linearGradient>
<linearGradient id="paint9_linear_16_293" x1="-246.13" y1="-63.3735" x2="1160.34" y2="436.375" gradientUnits="userSpaceOnUse">
<stop stop-color="#FFC700"/>
<stop offset="0.477083" stop-color="#FF6600"/>
<stop offset="0.9875" stop-color="#EA4335"/>
</linearGradient>
<linearGradient id="paint10_linear_16_293" x1="-246.13" y1="-63.3735" x2="1160.34" y2="436.375" gradientUnits="userSpaceOnUse">
<stop stop-color="#FFC700"/>
<stop offset="0.477083" stop-color="#FF6600"/>
<stop offset="0.9875" stop-color="#EA4335"/>
</linearGradient>
<linearGradient id="paint11_linear_16_293" x1="-246.13" y1="-63.3735" x2="1160.34" y2="436.375" gradientUnits="userSpaceOnUse">
<stop stop-color="#FFC700"/>
<stop offset="0.477083" stop-color="#FF6600"/>
<stop offset="0.9875" stop-color="#EA4335"/>
</linearGradient>
<linearGradient id="paint12_linear_16_293" x1="-246.13" y1="-63.3735" x2="1160.34" y2="436.375" gradientUnits="userSpaceOnUse">
<stop stop-color="#FFC700"/>
<stop offset="0.477083" stop-color="#FF6600"/>
<stop offset="0.9875" stop-color="#EA4335"/>
</linearGradient>
<linearGradient id="paint13_linear_16_293" x1="-246.13" y1="-63.3735" x2="1160.34" y2="436.375" gradientUnits="userSpaceOnUse">
<stop stop-color="#FFC700"/>
<stop offset="0.477083" stop-color="#FF6600"/>
<stop offset="0.9875" stop-color="#EA4335"/>
</linearGradient>
<linearGradient id="paint14_linear_16_293" x1="-246.13" y1="-63.3735" x2="1160.34" y2="436.375" gradientUnits="userSpaceOnUse">
<stop stop-color="#FFC700"/>
<stop offset="0.477083" stop-color="#FF6600"/>
<stop offset="0.9875" stop-color="#EA4335"/>
</linearGradient>
<linearGradient id="paint15_linear_16_293" x1="-246.13" y1="-63.3735" x2="1160.34" y2="436.375" gradientUnits="userSpaceOnUse">
<stop stop-color="#FFC700"/>
<stop offset="0.477083" stop-color="#FF6600"/>
<stop offset="0.9875" stop-color="#EA4335"/>
</linearGradient>
<linearGradient id="paint16_linear_16_293" x1="-246.13" y1="-63.3735" x2="1160.34" y2="436.375" gradientUnits="userSpaceOnUse">
<stop stop-color="#FFC700"/>
<stop offset="0.477083" stop-color="#FF6600"/>
<stop offset="0.9875" stop-color="#EA4335"/>
</linearGradient>
<linearGradient id="paint17_linear_16_293" x1="-246.13" y1="-63.3735" x2="1160.34" y2="436.375" gradientUnits="userSpaceOnUse">
<stop stop-color="#FFC700"/>
<stop offset="0.477083" stop-color="#FF6600"/>
<stop offset="0.9875" stop-color="#EA4335"/>
</linearGradient>
<linearGradient id="paint18_linear_16_293" x1="-246.13" y1="-63.3735" x2="1160.34" y2="436.375" gradientUnits="userSpaceOnUse">
<stop stop-color="#FFC700"/>
<stop offset="0.477083" stop-color="#FF6600"/>
<stop offset="0.9875" stop-color="#EA4335"/>
</linearGradient>
<linearGradient id="paint19_linear_16_293" x1="-246.13" y1="-63.3735" x2="1160.34" y2="436.375" gradientUnits="userSpaceOnUse">
<stop stop-color="#FFC700"/>
<stop offset="0.477083" stop-color="#FF6600"/>
<stop offset="0.9875" stop-color="#EA4335"/>
</linearGradient>
<linearGradient id="paint20_linear_16_293" x1="-246.13" y1="-63.3735" x2="1160.34" y2="436.375" gradientUnits="userSpaceOnUse">
<stop stop-color="#FFC700"/>
<stop offset="0.477083" stop-color="#FF6600"/>
<stop offset="0.9875" stop-color="#EA4335"/>
</linearGradient>
<linearGradient id="paint21_linear_16_293" x1="-246.13" y1="-63.3735" x2="1160.34" y2="436.375" gradientUnits="userSpaceOnUse">
<stop stop-color="#FFC700"/>
<stop offset="0.477083" stop-color="#FF6600"/>
<stop offset="0.9875" stop-color="#EA4335"/>
</linearGradient>
<linearGradient id="paint22_linear_16_293" x1="-246.13" y1="-63.3735" x2="1160.34" y2="436.375" gradientUnits="userSpaceOnUse">
<stop stop-color="#FFC700"/>
<stop offset="0.477083" stop-color="#FF6600"/>
<stop offset="0.9875" stop-color="#EA4335"/>
</linearGradient>
<linearGradient id="paint23_linear_16_293" x1="-246.13" y1="-63.3735" x2="1160.34" y2="436.375" gradientUnits="userSpaceOnUse">
<stop stop-color="#FFC700"/>
<stop offset="0.477083" stop-color="#FF6600"/>
<stop offset="0.9875" stop-color="#EA4335"/>
</linearGradient>
<linearGradient id="paint24_linear_16_293" x1="-246.13" y1="-63.3735" x2="1160.34" y2="436.375" gradientUnits="userSpaceOnUse">
<stop stop-color="#FFC700"/>
<stop offset="0.477083" stop-color="#FF6600"/>
<stop offset="0.9875" stop-color="#EA4335"/>
</linearGradient>
<linearGradient id="paint25_linear_16_293" x1="-246.13" y1="-63.3735" x2="1160.34" y2="436.375" gradientUnits="userSpaceOnUse">
<stop stop-color="#FFC700"/>
<stop offset="0.477083" stop-color="#FF6600"/>
<stop offset="0.9875" stop-color="#EA4335"/>
</linearGradient>
<linearGradient id="paint26_linear_16_293" x1="-246.13" y1="-63.3735" x2="1160.34" y2="436.375" gradientUnits="userSpaceOnUse">
<stop stop-color="#FFC700"/>
<stop offset="0.477083" stop-color="#FF6600"/>
<stop offset="0.9875" stop-color="#EA4335"/>
</linearGradient>
<linearGradient id="paint27_linear_16_293" x1="-246.13" y1="-63.3735" x2="1160.34" y2="436.375" gradientUnits="userSpaceOnUse">
<stop stop-color="#FFC700"/>
<stop offset="0.477083" stop-color="#FF6600"/>
<stop offset="0.9875" stop-color="#EA4335"/>
</linearGradient>
<linearGradient id="paint28_linear_16_293" x1="-246.13" y1="-63.3735" x2="1160.34" y2="436.375" gradientUnits="userSpaceOnUse">
<stop stop-color="#FFC700"/>
<stop offset="0.477083" stop-color="#FF6600"/>
<stop offset="0.9875" stop-color="#EA4335"/>
</linearGradient>
<linearGradient id="paint29_linear_16_293" x1="-246.13" y1="-63.3735" x2="1160.34" y2="436.375" gradientUnits="userSpaceOnUse">
<stop stop-color="#FFC700"/>
<stop offset="0.477083" stop-color="#FF6600"/>
<stop offset="0.9875" stop-color="#EA4335"/>
</linearGradient>
</defs>
</svg>
