<svg width="44" height="44" viewBox="0 0 44 44" fill="none" xmlns="http://www.w3.org/2000/svg">
<g clip-path="url(#clip0_33_14321)">
<path d="M43.9871 0H0.0128906C0.00577133 0 0 0.00577133 0 0.0128906V43.9871C0 43.9942 0.00577133 44 0.0128906 44H43.9871C43.9942 44 44 43.9942 44 43.9871V0.0128906C44 0.00577133 43.9942 0 43.9871 0Z" fill="#37AEE2"/>
<path d="M17.1016 34.7188C16.1562 34.7188 16.2422 34.375 15.9844 33.5156L13.2344 24.4922L34.2891 12.1172" fill="#C8DAEA"/>
<path d="M17.1016 34.7188C17.7031 34.7188 18.0469 34.375 18.4766 34.0312L22.3438 30.3359L17.5312 27.4141" fill="#A9C9DD"/>
<path d="M17.5312 27.4141L29.1328 35.9219C30.3359 36.6953 31.3672 36.2656 31.7109 34.7188L36.4375 12.5469C36.8672 10.6563 35.6641 9.79689 34.375 10.3984L6.78906 21.0547C4.98437 21.7422 4.98437 22.8594 6.44531 23.2891L13.5781 25.5234L29.9062 15.125C30.6797 14.6953 31.3672 14.8672 30.8516 15.4688" fill="#F6FBFE"/>
</g>
<defs>
<clipPath id="clip0_33_14321">
<rect width="44" height="44" fill="white"/>
</clipPath>
</defs>
</svg>
