<svg width="1235" height="586" viewBox="0 0 1235 586" fill="none" xmlns="http://www.w3.org/2000/svg">
<path d="M520.757 469.252C526.982 462.726 540.981 449.038 541.338 450.203C541.156 449.588 541.059 449.277 542.151 447.886C543.252 446.499 545.526 444.008 550.051 438.969C550.302 439.819 558.72 431.171 564.042 425.653C559.279 429.707 553.147 435.839 540.631 447.72C535.461 453.918 526.529 462.017 517.61 469.841C508.7 477.7 499.708 485.052 494.61 490.548C502.864 484.171 511.29 478.435 520.768 469.257L520.757 469.252Z" fill="white"/>
<path d="M574.615 423.75L575.977 421.686C569.7 428.517 563.353 435.253 556.981 441.963C558.846 439.816 563.057 435.352 566.879 431.351C570.69 427.345 574.164 423.856 574.621 423.737L574.615 423.75Z" fill="white"/>
<path d="M636.929 350.552C623.389 364.966 645.389 342.251 631.994 357.06C636.409 351.986 641.639 346.286 636.929 350.552Z" fill="white"/>
<path d="M694.843 291.865L666.61 323.23L678.798 310.885L694.843 291.865Z" fill="url(#paint0_linear_28_339)"/>
<path d="M698.113 292.35C694.359 296.366 688.197 302.344 693.258 296.221C704.154 286.005 709.597 278.008 719.732 268.522L710.851 278.615C712.732 278.103 729.303 257.416 729.985 259.434C741.6 245.246 719.53 268.085 735.127 250.314C720.089 266.621 708.666 278.285 695.783 291.624C699.698 287.994 701.152 286.331 706.534 281.013C697.529 290.721 685.765 304.277 675.333 315.723C681.79 310.554 688.859 301.286 698.119 292.337L698.113 292.35Z" fill="url(#paint1_linear_28_339)"/>
<path d="M744.216 243.788C749.138 238.65 755.491 232.229 760.784 226.556C766.062 220.862 770.381 216.025 771.301 214.102C765.714 218.966 762.682 222.204 760.47 224.832C758.258 227.461 756.885 229.521 754.708 232.182C751.524 235.068 741.625 245.273 745.177 240.491C746.814 239.225 739.456 248 744.216 243.788Z" fill="url(#paint2_linear_28_339)"/>
<path d="M783.396 204.123C785.569 201.304 787.807 198.593 790.016 195.807L785.39 200.628L784.308 200.412C783.601 201.433 781.071 206.34 770.997 216.324C776.618 211.662 777.905 209.188 783.396 204.123Z" fill="url(#paint3_linear_28_339)"/>
<path d="M782.134 196.474C789.394 190.266 793.176 185.996 800.927 177.98C795.444 183.408 788.804 189.963 783.121 195.582C777.499 201.259 772.899 206.107 771.425 207.949L772.144 206.903C772.144 206.903 769.699 209.628 766.386 213.315C763.072 217.002 759.02 221.805 755.701 225.834C758.307 222.839 761.541 219.38 764.853 215.943C768.205 212.555 771.597 209.107 774.553 206.116C780.43 200.102 784.437 195.779 782.134 196.474Z" fill="url(#paint4_linear_28_339)"/>
<path d="M814.651 173.426C809.366 178.288 803.996 183.034 798.785 188.008L802.8 184.627L814.657 173.413L814.651 173.426Z" fill="url(#paint5_linear_28_339)"/>
<path d="M793.795 188.095C806.372 176.053 786.417 193.904 798.169 182.454C801.279 179.237 780.936 199.302 780.402 200.793C783.543 197.918 791.909 188.48 793.806 188.099L793.795 188.095Z" fill="url(#paint6_linear_28_339)"/>
<path d="M858.257 135.011C859.004 134.04 859.766 133.092 860.549 132.153C863.889 129.557 867.452 126.641 871.089 123.619C874.736 120.601 878.417 117.426 882.119 114.59C885.797 111.696 889.358 108.92 892.67 106.468C894.326 105.241 895.903 104.104 897.39 103.082C898.892 102.082 900.318 101.22 901.627 100.476C900.284 100.938 901.489 99.4898 901.529 98.992C901.552 98.752 901.282 98.7376 900.256 99.3302C899.24 99.9276 897.435 101.069 894.502 103.352C892.895 105.21 888.72 108.502 889.645 108.458C884.587 112.251 885.317 110.881 881.874 113.289C877.729 116.954 872.423 121.588 867.249 125.907C864.677 128.089 862.159 130.233 859.869 132.185C857.587 134.172 855.601 136.09 854.011 137.691C857.211 134.718 858.057 134.106 860.533 132.161C853.73 138.798 849.384 142.105 846.046 144.561C842.716 147.052 840.393 148.691 837.875 152.368C842.501 147.328 851.838 141.057 858.247 135.006L858.257 135.011Z" fill="url(#paint7_linear_28_339)"/>
<path d="M854.707 131.879L843.17 141.629C846.244 137.754 857.036 129.351 858.541 127.086C857.517 127.101 846.067 136.906 850.033 132.893C849.75 136.001 834.515 146.634 841.671 143.553C838.002 146.811 835.904 148.726 834.497 149.848C833.101 150.974 832.419 151.365 831.72 151.764C830.318 152.574 828.806 153.46 821.171 160.512C819.93 162.148 818.71 163.793 817.498 165.474C825.811 157.356 830.915 152.942 835.954 148.452C841.019 143.989 846.206 139.723 854.703 131.862L854.707 131.879Z" fill="url(#paint8_linear_28_339)"/>
<path d="M882.669 106.631C873.721 113.315 874.468 113.33 874.972 113.436C875.481 113.56 875.784 113.856 866.178 121.536L876.142 113.16L886.272 105.079L882.675 106.618L882.669 106.631Z" fill="url(#paint9_linear_28_339)"/>
<path d="M970.821 49.2361C974.021 47.7651 977.175 46.1783 980.402 44.8134C974.83 45.9776 960.809 56.4019 970.821 49.2361Z" fill="white"/>
<path d="M1038.39 19.6667C1041.97 17.9469 1041.58 17.7175 1039.22 18.3266C1036.88 18.9534 1032.56 20.3173 1028.38 22.1552C1032.17 20.6402 1035.08 19.7892 1036.85 19.3948C1038.61 19.0003 1039.21 19.0883 1038.4 19.6538L1038.39 19.6667Z" fill="url(#paint10_linear_28_339)"/>
<path d="M1144.69 7.32883C1138.85 7.57216 1136.55 7.28096 1135.82 6.88155C1140.02 6.9497 1143.37 7.0475 1144.69 7.32883Z" fill="url(#paint11_linear_28_339)"/>
<path d="M943.825 69.7511C942.078 70.9038 940.187 72.1476 938.443 73.239C940.282 72.0503 942.002 70.9317 943.825 69.7511Z" fill="url(#paint12_linear_28_339)"/>
<path d="M947.346 67.473C946.186 68.2227 945.003 68.9934 943.825 69.7511C945.145 68.9023 946.322 68.1445 947.346 67.473Z" fill="url(#paint13_linear_28_339)"/>
<path d="M1066.52 16.0145L1066.46 16.0342C1066.02 16.1143 1065.61 16.178 1065.17 16.2581C1065.62 16.1828 1066.07 16.0898 1066.51 16.0274L1066.52 16.0145Z" fill="url(#paint14_linear_28_339)"/>
<path d="M613.468 383.701C610.973 386.481 609.013 388.616 607.425 390.295C609.413 388.127 611.43 385.924 613.402 383.764L613.479 383.705L613.468 383.701Z" fill="url(#paint15_linear_28_339)"/>
<path d="M605.214 389.749C615.433 377.533 618.011 379.061 635.038 359.788C628.14 367.507 620.865 375.553 613.402 383.764C602.555 393.377 620.684 374.907 605.22 389.736L605.214 389.749Z" fill="url(#paint16_linear_28_339)"/>
<path d="M749.888 232.503L750.482 231.837C751.535 230.694 751.007 231.296 749.888 232.503Z" fill="url(#paint17_linear_28_339)"/>
<path d="M100.28 440.546L99.8886 440.741C97.775 437.19 94.4585 434.745 92.4443 431.114C94.583 434.692 98.0404 437.077 100.284 440.563L100.28 440.546Z" fill="white"/>
<path d="M100.613 442.529C102.386 445.564 104.175 448.59 106.047 451.546C107.908 454.496 109.702 457.541 111.646 460.42C99.74 443.692 88.9307 425.888 78.8552 407.498C68.8568 389.049 59.7197 369.901 51.3017 350.254L53.4345 353.736C53.4256 353.482 54.0777 354.798 55.2234 357.31C55.7881 358.57 56.4817 360.125 57.2909 361.919C58.1164 363.706 59.0471 365.729 60.0698 367.935C64.1039 376.825 69.7685 388.623 75.7622 400.087C87.5716 423.183 101.344 444.303 100.619 442.516L100.613 442.529Z" fill="white"/>
<path d="M104.344 447.073C108.383 451.383 110.959 455.678 113.91 460.114C115.372 462.349 116.839 464.681 118.583 467.093C120.35 469.484 122.356 471.984 124.772 474.658C118.3 467.573 113.521 462.657 108.512 454.523L104.334 447.068L104.344 447.073Z" fill="white"/>
<path d="M145.385 486.843C146.049 487.586 146.692 488.319 147.341 489.039C146.499 488.246 145.739 487.522 145.171 486.98L145.385 486.843Z" fill="url(#paint18_linear_28_339)"/>
<path d="M145.171 486.98L144.645 487.332C143.464 485.554 143.969 485.849 145.171 486.98Z" fill="url(#paint19_linear_28_339)"/>
<path d="M147.341 489.039C149.227 490.844 151.446 492.989 152.68 493.993L150.921 491.887C153.473 494.592 158.346 498.894 159.315 500.449C154.357 495.076 153.983 495.342 153.269 495.859L161.38 504.572C158.52 504.589 154.251 497.139 147.335 489.052L147.341 489.039Z" fill="url(#paint20_linear_28_339)"/>
<path d="M186.289 528.443C183.956 526.903 175.123 519.078 180.188 524.219C178.596 523.144 176.87 521.648 175.107 519.962C178.114 522.579 178.519 522.217 179.304 522.531C180.112 522.823 181.359 523.693 186.289 528.443Z" fill="url(#paint21_linear_28_339)"/>
<path d="M175.112 519.949C174.395 519.323 173.596 518.627 172.556 517.665C173.438 518.398 174.296 519.183 175.112 519.949Z" fill="url(#paint22_linear_28_339)"/>
<path d="M204.616 544.131L208.336 546.59C207.268 545.88 206.269 545.265 205.301 544.664L204.616 544.131Z" fill="url(#paint23_linear_28_339)"/>
<path d="M0.454018 203.531C4.60591 221.032 10.1849 242.566 18.3698 266.689C19.412 265.431 21.8124 276.293 23.5734 276.945C19.5278 264.358 26.9581 288.181 36.0072 311.762C37.1098 314.724 38.2554 317.674 39.4099 320.551C40.554 323.422 41.6522 326.257 42.7578 328.939C44.9972 334.268 46.9668 339.145 48.6682 342.883C51.9984 350.433 53.6568 353.854 51.7821 348.989L48.843 343.651L52.5693 348.725C57.0583 360.374 63.1523 376.435 67.535 383.39C67.7144 383.957 64.8702 378.413 60.7989 369.63C56.6728 360.885 51.4679 348.798 46.5223 336.611C36.6268 312.219 28.2835 287.1 28.7828 289.16C28.0169 284.069 39.6873 318.989 55.0029 353.439C62.5925 370.704 71.0419 387.847 77.9946 400.643C78.8557 402.242 79.6931 403.784 80.486 405.259C81.3012 406.712 82.0882 408.09 82.8308 409.401C84.3218 412.009 85.6202 414.326 86.7525 416.238C89.0499 420.046 90.5068 422.373 90.8181 422.734L92.1917 427.87C94.7411 431.73 95.9403 432.046 98.2021 435.275C100.514 438.448 102.755 441.338 104.897 444.198C109.293 449.783 113.47 455.079 118.191 461.079L119.398 464.745C116.26 460.004 114.068 457.199 111.856 454.354C109.683 451.479 107.329 448.725 103.989 444.016C109.599 452.347 112.896 457.287 115.919 461.677C118.89 466.123 121.675 469.936 126.34 475.894C126.678 475.157 124.849 472.409 124.438 471.689C124.05 470.948 124.951 472.378 131.211 479.46C132.708 481.836 131.196 480.86 130.668 480.915C130.401 480.949 130.382 481.237 131.108 482.337C131.468 482.894 132.015 483.645 132.814 484.669C133.635 485.672 134.714 486.934 136.106 488.527C137.728 490.522 139.131 492.199 140.362 493.624C141.62 495.015 142.721 496.147 143.703 497.129C145.65 499.071 147.127 500.343 148.548 501.543C149.998 502.71 151.415 503.782 153.226 505.365C155.054 506.939 157.225 509.078 160.403 512.117C157.669 509.234 155.087 506.156 152.475 503.143C154.755 505.457 157.986 508.817 161.299 512.027C162.938 513.656 164.551 515.288 166.008 516.848C167.489 518.357 168.832 519.756 169.848 520.989C168.532 519.696 166.607 518.062 164.577 516.16C162.542 514.272 160.306 512.275 158.213 510.485C154.089 506.824 150.591 503.936 150.276 504.73C151.63 506.024 153.337 507.778 155.209 509.748C157.075 511.731 159.219 513.794 161.269 515.924C162.305 516.978 163.331 518.028 164.321 519.045C165.339 520.029 166.338 520.973 167.27 521.87C169.141 523.652 170.779 525.201 171.988 526.288L168.434 524.453C169.59 525.875 170.706 527.029 171.827 528.091C172.965 529.114 174.109 530.015 175.3 530.953C177.708 532.794 180.182 534.93 183.445 538.086C190.361 542.888 180.338 533.579 184.259 536.176C184.858 536.842 188.173 539.991 192.122 543.103C196.111 546.154 200.506 549.47 203.118 550.622C202.602 549.556 201.247 548.512 199.569 547.132C197.874 545.79 195.718 544.3 193.409 542.708C191.065 541.163 188.697 539.262 186.414 537.338C184.131 535.414 181.981 533.394 180.347 531.205C182.244 532.984 184.216 534.655 186.187 536.327C188.165 537.985 190.096 539.717 192.108 541.328C194.362 542.301 194.251 541.859 192.886 540.7C191.515 539.555 189.028 537.474 186.376 535.397C185.054 534.336 183.682 533.3 182.465 532.256C181.248 531.213 180.14 530.234 179.256 529.422C177.5 527.802 176.702 526.857 177.916 527.305C180.463 528.709 182.743 530.585 185.021 532.491C187.299 534.397 189.478 536.493 191.642 538.565C193.824 540.599 196.1 542.457 198.399 544.154C199.562 544.986 200.717 545.782 201.937 546.436C203.175 547.051 204.438 547.584 205.749 547.983C202.88 545.914 197.029 541.336 192.206 537.448C187.476 533.383 183.748 530.092 185.115 530.673C187.999 533.53 190.769 535.568 193.94 537.665C195.553 538.64 197.253 539.671 199.128 540.814C201.009 541.943 202.957 543.338 205.304 544.712C208.812 547.387 212.238 550.242 215.918 552.651C221.075 554.8 217.186 552.545 213.646 549.966C221.575 555.546 233.116 561.548 246.214 566.295C259.299 571.098 273.936 574.518 287.56 576.722C291.673 577.015 293.868 577.131 294.972 577.106C296.077 577.081 296.086 576.898 295.801 576.752C295.527 576.61 294.981 576.375 294.974 576.2C294.967 576.024 295.497 575.908 297.404 575.751C299.532 576.15 302.076 576.41 304.836 576.583C305.524 576.617 306.227 576.674 306.943 576.674C307.665 576.661 308.393 576.636 309.131 576.615C310.603 576.556 312.108 576.48 313.606 576.417C315.117 576.329 316.611 576.249 318.106 576.168C319.6 575.978 321.078 575.797 322.502 575.622C325.364 575.246 328.027 574.999 330.35 574.673C333.12 574.334 338.127 572.238 335.508 572.114L329.688 573.243L318.073 574.761L312.283 575.168C312.879 574.801 312.37 574.348 310.688 574.045C309.841 573.891 308.712 573.779 307.277 573.73C305.851 573.607 304.127 573.504 302.091 573.477C304.723 574.779 296.664 574.489 287.954 573.102C286.858 572.943 285.749 572.84 284.651 572.633C283.563 572.431 282.481 572.216 281.419 572.01C279.301 571.616 277.26 571.273 275.463 571.027C271.886 570.417 269.268 570.044 268.653 570.7L269.36 569.461C259.935 567.824 250.819 565.077 241.853 561.947L242.55 562.454C242.618 562.36 241.241 561.775 238.932 560.84C236.624 559.874 233.284 558.747 229.701 556.946C227.881 556.095 225.963 555.183 223.976 554.255C222.002 553.302 220.075 552.135 218.096 551.055C216.157 549.914 214.149 548.898 212.342 547.662C210.523 546.452 208.778 545.244 207.158 544.093C208.172 544.622 210.298 545.957 212.726 547.51C215.172 549.024 218.041 550.545 220.318 551.825C221.46 552.458 222.478 553.004 223.255 553.392C224.049 553.741 224.612 553.937 224.808 553.949C225.217 553.933 224.147 553.254 220.982 550.925C223.563 552.282 226.74 553.709 230.24 555.473C233.692 557.339 237.74 558.948 241.974 560.891C250.588 564.377 260.515 568.012 271.111 569.78L267.31 567.988C270.096 568.406 272.94 569.024 275.91 569.48C278.898 569.867 281.964 570.305 285.085 570.784C288.247 571.094 291.478 571.419 294.745 571.746C296.368 571.96 298.043 571.978 299.715 572.057C301.387 572.137 303.065 572.204 304.748 572.288C318.242 572.696 332.34 571.489 345.171 568.636L341.356 570.076C340.078 570.506 338.808 570.892 337.526 571.304C338.661 571.184 339.834 571.066 341.033 570.944C342.241 570.748 343.476 570.548 344.727 570.341C347.24 569.93 349.828 569.492 352.397 569.013C354.966 568.425 357.521 567.706 359.947 566.99C362.386 566.248 364.708 565.515 366.82 564.499C364.057 565.482 362.342 565.852 361.354 566.087C360.363 566.304 360.093 566.29 360.228 566.133C360.498 565.819 362.383 564.996 363.342 564.466C370.728 561.788 379.878 558.716 389.595 554.543C399.31 550.432 409.644 545.573 419.35 539.894C419.35 539.894 418.465 540.645 419.349 540.362C422.742 538.417 426.088 536.246 429.449 534.207C432.788 532.08 436.104 529.864 439.434 527.702C448.95 521.779 452.398 520.124 458.463 516.793C461.851 514.204 470.317 508.049 466.832 509.812C464.988 511.092 463.135 512.337 461.954 513.266C466.672 509.175 468.403 507.921 470.497 506.536C472.58 505.146 475.03 503.612 480.928 498.484C471.976 506.762 484.499 497.464 483.872 499.241C497.834 487.383 484.34 496.578 485.905 494.731C490.251 491.393 493.661 488.783 496.592 486.531C499.529 484.266 502.011 482.418 504.455 480.459C509.369 476.599 514.264 472.668 522.622 465.135C523.272 463.775 510.583 475.514 508.777 476.109C513.637 472.036 519.182 466.965 519.904 465.967C516.424 468.921 512.915 471.83 509.406 474.739C518.304 467.344 526.882 459.77 535.507 451.655C544.118 443.518 552.801 434.867 561.906 425.298L560.277 426.521C564.093 422.642 567.924 418.786 571.71 414.862L568.294 420.004C574.276 413.459 581.465 407.407 584.175 403.255L581.869 405.543L589.284 397.217L582.115 406.375C592.153 396.578 604.06 380.523 619.84 363.774C622.005 362.563 615.329 369.962 607.996 378.107C600.663 386.252 592.67 395.096 592.263 396.942C597.672 391.699 606.778 382.428 609.604 378.626C608.648 378.876 604.9 382.879 601.12 386.9C614.246 371.389 635.825 350.467 643.457 339.753L632.721 350.387C644.65 337.266 653.64 330.601 656.982 325.347L648.726 337.089C660.353 323.204 676.115 306.385 687.1 293.487C686.676 292.276 670.626 311.309 671.291 310.27L676.222 303.743C694.458 285.041 681.714 298.788 703.755 276.092L703.476 275.276C711.399 268.419 729.516 246.033 723.439 255.411L717.239 261.308L718.306 261.501C726.523 252.416 734.85 243.445 743.153 234.447C741.077 237.545 753.258 224.697 750.522 228.821L759.442 218.479C764.509 215.159 743.07 237.474 742.728 239.367C743.422 239.498 747.759 234.841 749.885 232.564C744.524 238.768 740.174 242.933 735.71 246.937C731.246 250.941 726.727 254.872 721.196 260.763L716.18 267.282L715.773 266.063C711.311 271.1 707.842 275.92 706.505 278.012C694.631 288.467 684.113 302.564 667.504 319.996C680.713 304.773 658.115 328.542 660.253 325.801C652.776 333.849 635.492 355.351 628.247 361.143C623.542 365.427 636.916 350.608 626.335 361.642C619.643 369.049 615.35 374.539 620.072 370.247C605.205 386.758 587.093 405.767 570.291 423.016L573.846 418.283C562.976 428.605 553.271 439.728 548.089 445.951C546.435 447.147 545.733 448.154 547.13 446.152C543.523 449.22 540.668 451.882 538.069 454.505C535.445 457.101 533.072 459.641 530.436 462.481C525.12 468.096 518.763 474.937 506.919 485C507.853 484.881 510.993 482.585 514.766 479.374C518.514 476.137 522.933 472.066 526.423 468.459L525.173 471.264C545.269 453.024 566.774 430.896 581.719 414.296L575.165 422.361C582.34 416.145 584.472 413.308 586.527 410.638C588.593 407.973 590.547 405.413 597.31 399.603C606.211 389.519 590.289 406.14 596.886 398.392C603.583 391.769 596.523 401.838 607.418 390.339C587.268 412.308 565.381 435.434 542.367 457.62C519.37 479.799 495.185 500.979 470.866 519.031C470.048 519.938 472.63 518.089 475.201 516.266C474.203 517.153 472.728 518.369 470.842 519.849C468.937 521.289 466.61 523.02 463.943 524.971C458.583 528.845 451.734 533.474 443.887 538.443C428.156 548.27 408.224 558.983 388.193 566.819C368.211 574.85 348.24 579.821 333.144 582.025C329.365 582.73 325.893 583.013 322.783 583.384C319.679 583.741 316.923 584.134 314.621 584.25C310.015 584.623 307.093 585.049 306.417 585.536C305.102 585.308 306.652 584.971 307.092 584.751C307.54 584.487 306.858 584.549 301.202 584.362C300.141 584.594 297.169 584.856 299.748 585.477C285.532 584.096 269.143 581.811 252.788 576.961C251.762 576.678 250.732 576.377 249.706 576.094C248.699 575.741 247.693 575.389 246.67 575.044C244.647 574.334 242.613 573.619 240.579 572.905L239.057 572.362L237.559 571.737L234.571 570.475L228.606 567.924C226.681 566.946 224.755 565.968 222.829 564.99L219.963 563.518C218.999 563.044 218.059 562.519 217.154 561.946C215.314 560.836 213.491 559.717 211.672 558.616C210.771 558.062 209.87 557.507 208.974 556.94C208.085 556.359 207.246 555.724 206.379 555.122C206.687 556.093 200.294 552.313 199.95 552.624C198.817 551.698 197.617 550.646 196.323 549.551C195.033 548.474 193.644 547.368 192.187 546.245C189.237 544.077 186.246 541.562 183.179 539.184C180.101 536.832 177.179 534.302 174.455 531.972C171.718 529.668 169.348 527.36 167.463 525.337L169.63 528.334C161.102 520.665 153 512.425 145.122 503.943C144.701 503.656 145.258 504.413 146.177 505.476C147.119 506.518 148.377 507.909 149.308 508.946C146.581 506.349 145.066 504.559 144.264 503.268C143.44 501.998 143.263 501.26 143.225 500.742C141.341 499.017 139.418 497.321 137.569 495.548L132.026 490.188C125.191 480.887 115.406 469.279 108.139 458.81C100.844 448.375 93.2815 440.273 87.5087 428.848C73.2963 405.759 60.0017 380.698 49.7758 354.809C45.5635 347.839 43.7706 340.196 38.545 327.114C39.2534 329.347 40.0106 331.556 40.7679 333.765C34.7136 320.928 40.943 332.673 36.1693 321.534C32.596 314.185 33.7709 320.136 38.3312 330.316C40.6075 337.07 38.6111 333.291 36.5732 328.727C20.5602 286.683 7.78514 240.432 0.454018 203.531Z" fill="url(#paint24_linear_28_339)"/>
<path d="M1089.64 8.31111C1090.37 8.17328 1091.3 8.00296 1092.47 7.79721L1092.47 7.78428C1101.85 6.26874 1100.38 7.04394 1097.97 7.99953C1097.93 8.18727 1097.15 8.53606 1095.21 9.12082C1095.83 8.81381 1096.98 8.39156 1097.97 7.99953C1098.04 7.6149 1094.96 7.90661 1092.12 8.23093C1090.91 8.38051 1089.75 8.52206 1088.9 8.62471C1087.18 9.35216 1085.05 10.2056 1082.56 10.9292C1080.97 11.4045 1079.24 11.8309 1077.37 12.2084C1075.5 12.647 1073.49 13.0365 1071.35 13.3207C1062.4 15.871 1053.61 18.5064 1044.81 21.3551C1045.47 21.2869 1046.13 21.2323 1046.8 21.1781C1050.5 20.8598 1054.62 20.1847 1063.55 17.5774C1053.61 20.0028 1070.12 14.8693 1061.79 16.6887C1071.4 13.1867 1083.93 12.3726 1101 8.9149C1097.93 9.43194 1096.99 9.52815 1097.22 9.21273C1097.44 8.94081 1098.84 8.33132 1100.45 8.00549C1103.25 7.75904 1106.5 7.38894 1109.97 6.94822C1113.41 6.63805 1117.08 6.30544 1120.74 5.98108C1124.4 5.70496 1128.04 5.62537 1131.48 5.43764C1133.19 5.33014 1134.84 5.36954 1136.42 5.37555C1137.73 5.39129 1138.97 5.40189 1140.15 5.41192L1140.87 5.41801C1140.44 5.18736 1140.5 4.91805 1140.72 4.72025C1145.6 4.92743 1148.7 5.39711 1151.95 5.71929C1153.58 5.91982 1155.25 6.04281 1157.13 6.39301C1159.01 6.7385 1161.16 7.129 1163.78 7.61613C1165.02 7.7934 1166.28 7.94959 1167.54 8.16703C1168.8 8.38439 1170.06 8.61951 1171.35 8.85115C1173.91 9.32268 1176.54 9.71803 1179.18 10.2406C1184.45 11.334 1189.9 12.3505 1195.37 13.6874C1206.33 16.2178 1207.51 12.6459 1218.37 16.1622C1229.25 19.6221 1234.95 11.7124 1234.95 11.7124C1208.36 1.9157 1203.25 7.26146 1172.46 3.27813C1157.08 1.26705 1141.58 0.535046 1126.56 1.25709C1111.54 1.9615 1097.01 4.12948 1083.63 6.83918L1086.33 6.54505C1080.62 8.05877 1066.43 11.2689 1065.7 10.7932L1063.37 12.7227C1053.4 15.9178 1055.75 14.1833 1057.82 12.5037C1058.85 11.6663 1059.81 10.8391 1059.08 10.6586C1058.35 10.5135 1055.93 10.8397 1050.26 12.8191C1056.11 11.2362 1056.64 11.8865 1054.63 13.0425C1052.62 14.2774 1048.09 16.2334 1043.79 17.5279C1045.83 17.2009 1045.96 19.2771 1050.55 17.6603C1054.62 16.7166 1058.71 16.0095 1062.78 15.2671C1062.86 14.7272 1064.17 14.0136 1066.2 13.2263C1068.24 12.5178 1071 11.753 1073.98 11.0095C1076.96 10.2178 1080.14 9.67901 1083.02 9.16806L1083.45 9.09355C1086.15 8.63014 1088.55 8.21865 1090.22 8.06429L1089.88 8.20898C1089.8 8.24256 1089.72 8.27661 1089.64 8.31111Z" fill="url(#paint25_linear_28_339)"/>
<path d="M1041.04 21.9151C1038.88 22.3298 1036.28 22.9823 1032.74 24.1867C1032.21 24.5921 1031.66 24.9752 1032.21 24.8838C1032.82 24.6911 1033.41 24.5116 1033.97 24.3463C1033.03 24.6775 1032.49 24.8385 1032.21 24.8838C1025.9 26.8897 1017.54 30.3221 1009.69 33.9791C1011.09 33.4041 1012.48 32.8462 1013.87 32.3379C1024.38 28.2554 1034.6 24.6615 1044.81 21.3551C1043.63 21.4759 1042.42 21.6387 1041.04 21.9151Z" fill="url(#paint26_linear_28_339)"/>
<path fill-rule="evenodd" clip-rule="evenodd" d="M906.102 91.9881L899.984 95.6546L899.957 95.6579C899.622 96.552 898.479 97.7009 896.805 99.0753C895.125 100.463 892.947 102.169 890.454 104.042C890.163 104.263 889.867 104.486 889.568 104.711C889.215 104.977 888.857 105.247 888.494 105.52C886.543 106.989 884.46 108.557 882.347 110.206C879.519 112.426 876.616 114.754 873.998 117.337C876.096 115.234 878.249 113.222 880.398 111.214L880.955 110.693L887.968 104.121L894.08 100.687C897.428 97.8283 898.071 97.1383 897.039 97.5249C896.329 97.7912 894.89 98.6813 893.093 99.9092C894.2 99.139 895.449 98.2769 896.807 97.3397L896.843 97.3144C898.582 96.1144 900.498 94.7916 902.522 93.3816L906.102 91.9881ZM915.863 83.8571L915.534 84.0871C914.672 84.7132 913.808 85.3384 912.945 85.9628C911.827 86.7721 910.71 87.58 909.602 88.3867C907.172 90.128 904.78 91.8091 902.522 93.3816L902.507 93.3876C907.198 89.7707 911.644 86.6411 915.863 83.8571ZM931.819 72.038L930.693 72.8247L931.671 72.3355C928.796 74.6289 925.253 77.2564 921.43 79.9744L920.668 80.5054C919.094 81.6023 917.486 82.7224 915.863 83.8571C922.78 79.2924 929.087 75.6565 934.87 72.3234L934.873 72.3217C935.504 71.9581 936.128 71.5979 936.747 71.2406C939.019 70.0266 941.208 68.8373 943.34 67.6796L943.355 67.671C945.856 66.3127 948.276 64.9978 950.657 63.7375C951.71 63.1681 952.748 62.595 953.775 62.0171C954.899 61.3847 956.01 60.7466 957.113 60.1011C959.241 58.8881 961.337 57.6607 963.401 56.3402C963.661 56.1609 963.921 55.983 964.182 55.8066C969.039 52.5188 973.976 49.7114 978.872 46.942C984.081 44.1878 989.261 41.4983 994.521 39.127C998.233 37.3482 1001.99 35.7385 1005.77 34.1174L1005.78 34.1135C1007.33 33.4502 1008.88 32.7849 1010.43 32.1054C1012.97 31.0886 1015.52 30.0234 1018.09 28.9498L1018.09 28.9484L1018.1 28.9469C1020.97 27.7447 1023.88 26.5317 1026.82 25.3644C1032.18 22.7252 1029.54 23.6259 1025.41 25.1721C1023.63 25.8064 1021.58 26.6307 1019.78 27.3576L1019.77 27.3629L1019.76 27.3637C1017.38 28.3252 1015.41 29.1149 1015.06 29.0668C1016.44 27.4801 1019.14 26.5597 1022.07 25.6217L1022.33 25.544C1025.21 24.687 1028.28 23.7734 1030.63 22.0459C1030.94 21.5626 1029.64 21.8075 1027.36 22.4854C1025.09 23.1938 1021.83 24.2289 1018.27 25.6604C1013.88 27.3118 1009.01 29.3482 1004.78 31.1168C1002.09 32.2388 999.664 33.253 997.783 33.9925C990.644 37.7436 989.876 38.4523 988.29 39.9152C988.052 40.1354 987.795 40.3727 987.494 40.64C986.304 40.8558 983.386 42.1139 980.57 43.328L980.568 43.3289C978.07 44.4061 975.653 45.4484 974.594 45.6973C971.713 47.5237 969.049 49.0982 966.543 50.5795L966.541 50.5806L966.539 50.5817C965.425 51.2407 964.341 51.8811 963.284 52.5171C961.589 53.5264 959.941 54.4546 958.325 55.3643L958.323 55.3652C956.659 56.3021 955.029 57.2195 953.419 58.1863C949.196 60.6338 944.992 63.1239 940.364 66.264C939.806 66.587 937.981 67.6993 936.157 68.8582C933.972 70.2762 931.81 71.804 931.819 72.038ZM939.814 66.6387C937.612 68.147 935.311 69.8057 932.864 71.679C932.133 72.0312 931.822 72.126 931.819 72.038L935.057 69.7765L939.479 66.8486C939.603 66.7715 939.714 66.7016 939.814 66.6387ZM940.364 66.264C940.181 66.3879 939.998 66.5127 939.814 66.6387C940.585 66.1544 940.686 66.0773 940.364 66.264ZM890.475 101.753C891.216 101.221 892.097 100.602 893.093 99.9092C892.282 100.464 891.398 101.087 890.475 101.753ZM1000.96 35.0913L1005.67 31.2632L1009.75 30.0699L1000.96 35.0913Z" fill="url(#paint27_linear_28_339)"/>
<path d="M957.113 60.1011C956.01 60.7466 954.899 61.3847 953.775 62.0171C954.219 61.8069 954.447 61.7644 954.36 61.9654C952.346 63.5899 949.79 65.2163 947.099 66.7807C944.432 68.4029 941.63 69.9632 939.102 71.3366C936.57 72.6923 934.348 74.0025 932.817 74.9574C931.279 75.9252 930.425 76.581 930.685 76.8097C932.904 75.6701 935.659 73.8847 938.705 72.0926C941.737 70.2781 944.97 68.2434 948.042 66.369C951.133 64.5348 954.044 62.7902 956.379 61.4535C958.71 60.099 960.517 59.2551 961.319 59.0133C963.801 57.1653 956.329 61.0706 963.263 56.5585C968.706 53.4582 971.102 52.3996 972.948 51.636C974.798 50.89 976.113 50.4614 979.482 49.0054L985.288 44.8982C986.398 45.5174 994.558 41.2085 1004.5 36.4663C1006.19 35.635 1007.93 34.8014 1009.69 33.9791C1008.63 34.416 1007.57 34.8628 1006.5 35.3055C1004.03 36.3437 1001.53 37.324 999.031 38.4445C994.026 40.6982 988.916 42.935 983.757 45.5247C978.556 47.9857 973.332 50.827 967.937 53.6838L966.815 54.3174C965.941 54.8111 965.063 55.307 964.182 55.8066C963.921 55.983 963.661 56.1609 963.401 56.3402C961.337 57.6607 959.241 58.8881 957.113 60.1011Z" fill="url(#paint28_linear_28_339)"/>
<path fill-rule="evenodd" clip-rule="evenodd" d="M639.791 354.341C637.224 356.6 634.638 358.877 635.28 357.537L623.882 369.228C628.591 364.199 633.509 358.894 638.348 353.676C651.265 339.744 663.609 326.429 669.86 320.64L667.335 325.236C664.491 328.417 660.663 332.376 656.94 336.225L656.935 336.231L656.932 336.234C650.108 343.291 643.643 349.976 644.259 350.814C643.916 350.71 641.862 352.518 639.794 354.338L639.791 354.341ZM644.259 350.814C644.272 350.817 644.282 350.824 644.29 350.833C644.295 350.839 644.3 350.847 644.303 350.856C644.286 350.844 644.271 350.83 644.259 350.814ZM656.302 335.092L651.376 341.606C643.605 349.422 648.327 344.1 652.857 338.994C654.109 337.583 655.347 336.188 656.302 335.092Z" fill="url(#paint29_linear_28_339)"/>
<defs>
<linearGradient id="paint0_linear_28_339" x1="95.0529" y1="-2.51336" x2="1041.9" y2="432.199" gradientUnits="userSpaceOnUse">
<stop stop-color="#FFC700"/>
<stop offset="0.477083" stop-color="#FF6600"/>
<stop offset="0.9875" stop-color="#EA4335"/>
</linearGradient>
<linearGradient id="paint1_linear_28_339" x1="95.0529" y1="-2.51336" x2="1041.9" y2="432.199" gradientUnits="userSpaceOnUse">
<stop stop-color="#FFC700"/>
<stop offset="0.477083" stop-color="#FF6600"/>
<stop offset="0.9875" stop-color="#EA4335"/>
</linearGradient>
<linearGradient id="paint2_linear_28_339" x1="95.0529" y1="-2.51336" x2="1041.9" y2="432.199" gradientUnits="userSpaceOnUse">
<stop stop-color="#FFC700"/>
<stop offset="0.477083" stop-color="#FF6600"/>
<stop offset="0.9875" stop-color="#EA4335"/>
</linearGradient>
<linearGradient id="paint3_linear_28_339" x1="95.0529" y1="-2.51336" x2="1041.9" y2="432.199" gradientUnits="userSpaceOnUse">
<stop stop-color="#FFC700"/>
<stop offset="0.477083" stop-color="#FF6600"/>
<stop offset="0.9875" stop-color="#EA4335"/>
</linearGradient>
<linearGradient id="paint4_linear_28_339" x1="95.0529" y1="-2.51336" x2="1041.9" y2="432.199" gradientUnits="userSpaceOnUse">
<stop stop-color="#FFC700"/>
<stop offset="0.477083" stop-color="#FF6600"/>
<stop offset="0.9875" stop-color="#EA4335"/>
</linearGradient>
<linearGradient id="paint5_linear_28_339" x1="95.0529" y1="-2.51336" x2="1041.9" y2="432.199" gradientUnits="userSpaceOnUse">
<stop stop-color="#FFC700"/>
<stop offset="0.477083" stop-color="#FF6600"/>
<stop offset="0.9875" stop-color="#EA4335"/>
</linearGradient>
<linearGradient id="paint6_linear_28_339" x1="95.0529" y1="-2.51336" x2="1041.9" y2="432.199" gradientUnits="userSpaceOnUse">
<stop stop-color="#FFC700"/>
<stop offset="0.477083" stop-color="#FF6600"/>
<stop offset="0.9875" stop-color="#EA4335"/>
</linearGradient>
<linearGradient id="paint7_linear_28_339" x1="95.0529" y1="-2.51336" x2="1041.9" y2="432.199" gradientUnits="userSpaceOnUse">
<stop stop-color="#FFC700"/>
<stop offset="0.477083" stop-color="#FF6600"/>
<stop offset="0.9875" stop-color="#EA4335"/>
</linearGradient>
<linearGradient id="paint8_linear_28_339" x1="95.0529" y1="-2.51336" x2="1041.9" y2="432.199" gradientUnits="userSpaceOnUse">
<stop stop-color="#FFC700"/>
<stop offset="0.477083" stop-color="#FF6600"/>
<stop offset="0.9875" stop-color="#EA4335"/>
</linearGradient>
<linearGradient id="paint9_linear_28_339" x1="95.0529" y1="-2.51336" x2="1041.9" y2="432.199" gradientUnits="userSpaceOnUse">
<stop stop-color="#FFC700"/>
<stop offset="0.477083" stop-color="#FF6600"/>
<stop offset="0.9875" stop-color="#EA4335"/>
</linearGradient>
<linearGradient id="paint10_linear_28_339" x1="95.0529" y1="-2.51336" x2="1041.9" y2="432.199" gradientUnits="userSpaceOnUse">
<stop stop-color="#FFC700"/>
<stop offset="0.477083" stop-color="#FF6600"/>
<stop offset="0.9875" stop-color="#EA4335"/>
</linearGradient>
<linearGradient id="paint11_linear_28_339" x1="95.0529" y1="-2.51336" x2="1041.9" y2="432.199" gradientUnits="userSpaceOnUse">
<stop stop-color="#FFC700"/>
<stop offset="0.477083" stop-color="#FF6600"/>
<stop offset="0.9875" stop-color="#EA4335"/>
</linearGradient>
<linearGradient id="paint12_linear_28_339" x1="95.0529" y1="-2.51336" x2="1041.9" y2="432.199" gradientUnits="userSpaceOnUse">
<stop stop-color="#FFC700"/>
<stop offset="0.477083" stop-color="#FF6600"/>
<stop offset="0.9875" stop-color="#EA4335"/>
</linearGradient>
<linearGradient id="paint13_linear_28_339" x1="95.0529" y1="-2.51336" x2="1041.9" y2="432.199" gradientUnits="userSpaceOnUse">
<stop stop-color="#FFC700"/>
<stop offset="0.477083" stop-color="#FF6600"/>
<stop offset="0.9875" stop-color="#EA4335"/>
</linearGradient>
<linearGradient id="paint14_linear_28_339" x1="95.0529" y1="-2.51336" x2="1041.9" y2="432.199" gradientUnits="userSpaceOnUse">
<stop stop-color="#FFC700"/>
<stop offset="0.477083" stop-color="#FF6600"/>
<stop offset="0.9875" stop-color="#EA4335"/>
</linearGradient>
<linearGradient id="paint15_linear_28_339" x1="95.0529" y1="-2.51336" x2="1041.9" y2="432.199" gradientUnits="userSpaceOnUse">
<stop stop-color="#FFC700"/>
<stop offset="0.477083" stop-color="#FF6600"/>
<stop offset="0.9875" stop-color="#EA4335"/>
</linearGradient>
<linearGradient id="paint16_linear_28_339" x1="95.0529" y1="-2.51336" x2="1041.9" y2="432.199" gradientUnits="userSpaceOnUse">
<stop stop-color="#FFC700"/>
<stop offset="0.477083" stop-color="#FF6600"/>
<stop offset="0.9875" stop-color="#EA4335"/>
</linearGradient>
<linearGradient id="paint17_linear_28_339" x1="95.0529" y1="-2.51336" x2="1041.9" y2="432.199" gradientUnits="userSpaceOnUse">
<stop stop-color="#FFC700"/>
<stop offset="0.477083" stop-color="#FF6600"/>
<stop offset="0.9875" stop-color="#EA4335"/>
</linearGradient>
<linearGradient id="paint18_linear_28_339" x1="95.0529" y1="-2.51336" x2="1041.9" y2="432.199" gradientUnits="userSpaceOnUse">
<stop stop-color="#FFC700"/>
<stop offset="0.477083" stop-color="#FF6600"/>
<stop offset="0.9875" stop-color="#EA4335"/>
</linearGradient>
<linearGradient id="paint19_linear_28_339" x1="95.0529" y1="-2.51336" x2="1041.9" y2="432.199" gradientUnits="userSpaceOnUse">
<stop stop-color="#FFC700"/>
<stop offset="0.477083" stop-color="#FF6600"/>
<stop offset="0.9875" stop-color="#EA4335"/>
</linearGradient>
<linearGradient id="paint20_linear_28_339" x1="95.0529" y1="-2.51336" x2="1041.9" y2="432.199" gradientUnits="userSpaceOnUse">
<stop stop-color="#FFC700"/>
<stop offset="0.477083" stop-color="#FF6600"/>
<stop offset="0.9875" stop-color="#EA4335"/>
</linearGradient>
<linearGradient id="paint21_linear_28_339" x1="95.0529" y1="-2.51336" x2="1041.9" y2="432.199" gradientUnits="userSpaceOnUse">
<stop stop-color="#FFC700"/>
<stop offset="0.477083" stop-color="#FF6600"/>
<stop offset="0.9875" stop-color="#EA4335"/>
</linearGradient>
<linearGradient id="paint22_linear_28_339" x1="95.0529" y1="-2.51336" x2="1041.9" y2="432.199" gradientUnits="userSpaceOnUse">
<stop stop-color="#FFC700"/>
<stop offset="0.477083" stop-color="#FF6600"/>
<stop offset="0.9875" stop-color="#EA4335"/>
</linearGradient>
<linearGradient id="paint23_linear_28_339" x1="95.0529" y1="-2.51336" x2="1041.9" y2="432.199" gradientUnits="userSpaceOnUse">
<stop stop-color="#FFC700"/>
<stop offset="0.477083" stop-color="#FF6600"/>
<stop offset="0.9875" stop-color="#EA4335"/>
</linearGradient>
<linearGradient id="paint24_linear_28_339" x1="95.0529" y1="-2.51336" x2="1041.9" y2="432.199" gradientUnits="userSpaceOnUse">
<stop stop-color="#FFC700"/>
<stop offset="0.477083" stop-color="#FF6600"/>
<stop offset="0.9875" stop-color="#EA4335"/>
</linearGradient>
<linearGradient id="paint25_linear_28_339" x1="95.0529" y1="-2.51336" x2="1041.9" y2="432.199" gradientUnits="userSpaceOnUse">
<stop stop-color="#FFC700"/>
<stop offset="0.477083" stop-color="#FF6600"/>
<stop offset="0.9875" stop-color="#EA4335"/>
</linearGradient>
<linearGradient id="paint26_linear_28_339" x1="95.0529" y1="-2.51336" x2="1041.9" y2="432.199" gradientUnits="userSpaceOnUse">
<stop stop-color="#FFC700"/>
<stop offset="0.477083" stop-color="#FF6600"/>
<stop offset="0.9875" stop-color="#EA4335"/>
</linearGradient>
<linearGradient id="paint27_linear_28_339" x1="95.0529" y1="-2.51336" x2="1041.9" y2="432.199" gradientUnits="userSpaceOnUse">
<stop stop-color="#FFC700"/>
<stop offset="0.477083" stop-color="#FF6600"/>
<stop offset="0.9875" stop-color="#EA4335"/>
</linearGradient>
<linearGradient id="paint28_linear_28_339" x1="95.0529" y1="-2.51336" x2="1041.9" y2="432.199" gradientUnits="userSpaceOnUse">
<stop stop-color="#FFC700"/>
<stop offset="0.477083" stop-color="#FF6600"/>
<stop offset="0.9875" stop-color="#EA4335"/>
</linearGradient>
<linearGradient id="paint29_linear_28_339" x1="95.0529" y1="-2.51336" x2="1041.9" y2="432.199" gradientUnits="userSpaceOnUse">
<stop stop-color="#FFC700"/>
<stop offset="0.477083" stop-color="#FF6600"/>
<stop offset="0.9875" stop-color="#EA4335"/>
</linearGradient>
</defs>
</svg>
