<?xml version="1.0" encoding="utf-8"?>
<!-- Generator: Adobe Illustrator 26.1.0, SVG Export Plug-In . SVG Version: 6.00 Build 0)  -->
<svg version="1.1" id="Слой_1" xmlns="http://www.w3.org/2000/svg" xmlns:xlink="http://www.w3.org/1999/xlink" x="0px" y="0px"
	 viewBox="0 0 548 632.8" style="enable-background:new 0 0 548 632.8;" xml:space="preserve">
<style type="text/css">
	.st0{fill:#31313B;stroke:#000000;stroke-miterlimit:10;}
	.st1{fill:#FFFFFF;}
</style>
<polygon class="st0" points="548,474.6 274,632.8 0,474.6 0,158.2 274,0 548,158.2 "/>
<g>
	<path class="st1" d="M138.8,242.5h96.6v7.7h-87.7v57.8h82.5v7.7h-82.5V379h88.7v7.7h-97.6V242.5z M244,242.5h10.3l45.5,63.4
		l46.5-63.4l63.2-80.6L305.6,312.6l53.5,74.1h-10.7l-48.7-67.5l-48.9,67.5h-10.5l53.9-74.1L244,242.5z M362.9,250.2v-7.7h110v7.7
		h-50.7v136.5h-8.9V250.2H362.9z M18,242.5h11.1l152.6,228.3l-63.1-84.1L27.3,253.4l-0.4,133.3H18V242.5z M472.1,376.7
		c-1.8,0-3.2-1.4-3.2-3.2c0-1.8,1.4-3.2,3.2-3.2c1.8,0,3.2,1.4,3.2,3.2C475.2,375.3,473.9,376.7,472.1,376.7z M480.8,368.3h4.7
		c0.1,2.6,1.9,4.3,4.7,4.3c3.1,0,4.8-1.9,4.8-5.3v-22h4.8v22c0,6.3-3.6,9.9-9.6,9.9C484.6,377.1,480.8,373.6,480.8,368.3z
		 M506.2,368h4.8c0.4,3,3.3,4.8,7.4,4.8c3.9,0,6.7-2,6.7-4.8c0-2.4-1.8-3.8-5.9-4.8l-4-1c-5.6-1.3-8.2-4-8.2-8.6
		c0-5.5,4.5-9.2,11.3-9.2c6.3,0,10.9,3.7,11.2,8.9h-4.7c-0.5-2.9-2.9-4.7-6.6-4.7c-3.8,0-6.4,1.8-6.4,4.6c0,2.2,1.6,3.5,5.7,4.4
		l3.4,0.8c6.4,1.5,9,4.1,9,8.8c0,6-4.6,9.7-12,9.7C511.1,377.1,506.5,373.6,506.2,368z"/>
</g>
</svg>
