<?xml version="1.0" encoding="UTF-8"?>
<svg xmlns="http://www.w3.org/2000/svg" xmlns:xlink="http://www.w3.org/1999/xlink" viewBox="0 0 50 50" width="50px" height="50px">
<g id="surface30492281">
<path style=" stroke:none;fill-rule:nonzero;fill:rgb(18.039216%,80.000001%,44.313726%);fill-opacity:1;" d="M 25 50 C 11.191406 50 0 38.808594 0 25 C 0 11.191406 11.191406 0 25 0 C 38.808594 0 50 11.191406 50 25 C 50 38.808594 38.808594 50 25 50 Z M 25 50 "/>
<path style=" stroke:none;fill-rule:nonzero;fill:rgb(0%,0%,0%);fill-opacity:1;" d="M 41.753906 15.675781 L 41.175781 15.675781 C 40.464844 15.675781 39.792969 16.007812 39.359375 16.570312 L 33.464844 24.28125 L 27.570312 16.570312 C 27.136719 16.007812 26.464844 15.675781 25.753906 15.675781 L 25.179688 15.675781 L 32.613281 25.394531 L 25.019531 35.328125 L 25.59375 35.328125 C 26.308594 35.328125 26.976562 34.996094 27.410156 34.429688 L 33.464844 26.511719 L 39.519531 34.429688 C 39.953125 34.996094 40.621094 35.328125 41.335938 35.328125 L 41.910156 35.328125 L 34.316406 25.394531 Z M 22.480469 31.425781 C 20.75 34.054688 17.339844 35.402344 14.082031 34.214844 C 11.21875 33.167969 9.40625 30.320312 9.40625 27.269531 L 9.40625 26.515625 L 24.996094 26.515625 L 24.996094 23.714844 C 24.996094 19.308594 21.730469 15.449219 17.339844 15.035156 C 12.304688 14.5625 8.054688 18.527344 8.054688 23.46875 L 8.054688 27.242188 C 8.054688 30.882812 10.230469 34.265625 13.65625 35.5 C 18.132812 37.109375 22.835938 34.707031 24.429688 30.582031 L 23.996094 30.582031 C 23.378906 30.582031 22.816406 30.910156 22.480469 31.425781 Z M 9.40625 23.46875 C 9.40625 19.542969 12.601562 16.351562 16.523438 16.351562 C 20.445312 16.351562 23.640625 19.542969 23.640625 23.46875 L 23.640625 25.160156 L 9.40625 25.160156 Z M 9.40625 23.46875 "/>
</g>
</svg>
