<svg width="651" height="859" viewBox="0 0 651 859" fill="none" xmlns="http://www.w3.org/2000/svg">
<path d="M148.84 481.266C154.84 483.685 167.7 489.465 167.06 490.134C167.4 489.785 167.57 489.607 168.78 489.945C169.99 490.294 172.25 491.141 176.8 492.798C176.33 493.278 184.33 496.61 189.42 498.7C185.43 496.526 179.71 494.04 168.44 488.75C162.96 487.008 155.16 483.102 147.54 479.11C139.9 475.138 132.56 470.93 127.55 469C134.05 472.991 140.19 477.331 148.84 481.275V481.266Z" fill="white"/>
<path d="M193.74 505.967L195.46 506.278C189.25 503.925 183.08 501.487 176.92 499.02C178.84 499.679 182.93 501.298 186.61 502.786C190.29 504.264 193.54 505.666 193.75 505.967H193.74Z" fill="white"/>
<path d="M258.83 527.478C245.64 522.291 266.62 530.961 253.22 526.019C257.76 527.581 262.94 529.539 258.83 527.478Z" fill="white"/>
<path d="M313.35 550.683L285.01 540.318L296.48 545.204L313.35 550.683Z" fill="url(#paint0_linear_26_305)"/>
<path d="M314 553.3C310.33 551.869 304.7 549.308 310.1 550.993C319.83 555.644 326.54 556.971 335.58 561.301L326.52 558.119C327.4 559.353 345.49 564.652 344.4 565.857C356.88 569.679 335.8 561 351.74 566.573C336.9 560.915 326.09 556.368 313.78 551.304C317.25 552.989 318.74 553.507 323.72 555.709C314.87 552.302 302.75 548.15 292.37 544.272C297.57 547.331 305.57 549.44 314.01 553.3H314Z" fill="url(#paint1_linear_26_305)"/>
<path d="M358.58 571.139C363.31 573.059 369.28 575.61 374.46 577.625C379.65 579.62 384.01 581.192 385.51 581.221C380.76 578.707 377.8 577.549 375.47 576.796C373.14 576.043 371.42 575.723 369.08 575.008C366.3 573.614 356.87 569.708 360.97 570.724C362.26 571.515 354.49 569.02 358.58 571.139Z" fill="url(#paint2_linear_26_305)"/>
<path d="M395.44 586.85C397.88 587.509 400.27 588.253 402.7 588.949L398.26 587.142L398.08 586.257C397.22 586.078 393.34 585.871 384 581.757C388.63 584.365 390.59 584.478 395.44 586.85Z" fill="url(#paint3_linear_26_305)"/>
<path d="M399.96 583.273C406.06 586.577 409.9 587.942 417.3 590.992C412.22 588.752 406.08 586.031 400.82 583.706C395.54 581.447 391.09 579.667 389.48 579.197L390.36 579.376C390.36 579.376 387.9 578.481 384.57 577.267C381.24 576.052 376.98 574.669 373.43 573.567C376.11 574.49 379.27 575.723 382.44 577.022C385.59 578.368 388.79 579.724 391.57 580.91C397.14 583.245 401.08 584.76 399.96 583.273Z" fill="url(#paint4_linear_26_305)"/>
<path d="M424.24 599.709C419.58 597.422 414.97 595.031 410.26 592.837L413.6 594.682L424.25 599.709H424.24Z" fill="url(#paint5_linear_26_305)"/>
<path d="M408.74 589.128C420.13 594.409 402.86 585.598 413.63 590.465C416.6 591.689 397.8 583.348 396.69 583.461C399.45 584.826 407.94 587.848 408.74 589.138V589.128Z" fill="url(#paint6_linear_26_305)"/>
<path d="M461.6 619.167C462.44 619.393 463.27 619.638 464.1 619.901C466.74 621.511 469.65 623.177 472.65 624.863C475.65 626.557 478.76 628.223 481.66 630.021C484.59 631.782 487.41 633.495 489.95 635.133C491.22 635.952 492.41 636.743 493.5 637.505C494.58 638.286 495.55 639.058 496.41 639.783C495.72 638.936 497 639.341 497.33 639.2C497.49 639.134 497.42 638.927 496.74 638.362C496.06 637.806 494.8 636.846 492.48 635.434C490.82 634.869 487.49 632.874 487.79 633.551C483.88 631.066 484.97 631.141 482.42 629.391C478.86 627.545 474.34 625.164 470.06 622.773C467.91 621.596 465.8 620.447 463.88 619.403C461.94 618.376 460.13 617.548 458.64 616.908C461.48 618.282 462.12 618.706 464.09 619.892C457.85 617.077 454.46 614.959 451.91 613.302C449.34 611.664 447.61 610.488 444.52 609.866C449.1 611.599 455.85 616.437 461.6 619.158V619.167Z" fill="url(#paint7_linear_26_305)"/>
<path d="M462.56 615.43L452.94 610.139C456.32 611.109 464.86 616.305 466.75 616.654C466.44 615.891 456.81 610.685 460.54 612.276C458.47 613.133 447.2 605.376 451.27 609.678C448.11 608.05 446.27 607.136 445.14 606.468C444.01 605.809 443.56 605.433 443.1 605.047C442.17 604.275 441.16 603.446 434.41 600.152C433 599.784 431.59 599.436 430.16 599.107C437.79 602.543 442.11 604.849 446.46 607.08C450.8 609.339 455.05 611.759 462.57 615.421L462.56 615.43Z" fill="url(#paint8_linear_26_305)"/>
<path d="M486.91 627.696C480.01 623.29 480.22 623.855 480.3 624.269C480.37 624.693 480.27 625.023 472.54 620.466L480.82 625.051L488.96 629.861L486.92 627.696H486.91Z" fill="url(#paint9_linear_26_305)"/>
<path d="M549.48 674.002C551.36 675.894 553.3 677.711 555.12 679.66C552.74 675.885 541.96 668.966 549.48 674.002Z" fill="white"/>
<path d="M588.22 714.462C590.37 716.552 590.4 716.175 589.32 714.622C588.23 713.078 586.09 710.311 583.69 707.816C585.77 710.132 587.17 712.024 587.94 713.21C588.71 714.396 588.83 714.876 588.23 714.462H588.22Z" fill="url(#paint10_linear_26_305)"/>
<path d="M627.31 789.866C625.44 785.573 624.95 783.747 624.99 783.06C626.18 786.232 627.1 788.774 627.31 789.866Z" fill="url(#paint11_linear_26_305)"/>
<path d="M528.44 660.832C527.19 659.919 525.84 658.931 524.63 657.999C525.93 658.968 527.15 659.872 528.44 660.832Z" fill="url(#paint12_linear_26_305)"/>
<path d="M530.93 662.687C530.11 662.075 529.27 661.454 528.44 660.832C529.37 661.529 530.2 662.15 530.93 662.687Z" fill="url(#paint13_linear_26_305)"/>
<path d="M598.81 734.278L598.78 734.24C598.6 733.939 598.44 733.657 598.26 733.355C598.44 733.666 598.63 733.967 598.8 734.278H598.81Z" fill="url(#paint14_linear_26_305)"/>
<path d="M230.75 521.302C228.24 520.389 226.3 519.655 224.76 519.043C226.73 519.787 228.73 520.54 230.69 521.274L230.75 521.312V521.302Z" fill="url(#paint15_linear_26_305)"/>
<path d="M224.46 517.198C235.27 520.653 235.05 523.11 252.37 529.238C245.41 526.725 238.13 524.042 230.69 521.274C221.36 516.454 238.49 523.684 224.47 517.198H224.46Z" fill="url(#paint16_linear_26_305)"/>
<path d="M367.46 571.506L368.06 571.722C369.1 572.118 368.56 571.929 367.46 571.506Z" fill="url(#paint17_linear_26_305)"/>
<path d="M43.77 156.333L43.53 156.107C45.18 153.302 45.77 149.976 47.5 147.218C45.84 150.051 45.33 153.462 43.76 156.343L43.77 156.333Z" fill="white"/>
<path d="M42.6 157.265C41.18 159.637 39.77 162.019 38.43 164.438C37.09 166.848 35.67 169.239 34.4 171.687C41.6 157.011 49.81 142.787 58.61 128.911C67.47 115.073 77.03 101.64 87.12 88.5735L85.52 91.3694C85.68 91.2752 85.03 92.2166 83.76 93.9393C83.12 94.796 82.33 95.8503 81.42 97.0741C80.52 98.3073 79.5 99.7005 78.39 101.226C73.89 107.307 68.01 115.61 62.44 124.044C51.14 140.838 41.68 158.423 42.61 157.265H42.6Z" fill="white"/>
<path d="M40.79 161.624C39.22 166.133 37.23 169.541 35.26 173.278C34.26 175.142 33.2 177.043 32.17 179.18C31.16 181.327 30.15 183.689 29.15 186.419C31.78 179.133 33.52 173.862 37.25 167.31L40.79 161.614V161.624Z" fill="white"/>
<path d="M27.41 206.056C27.13 206.81 26.85 207.544 26.58 208.278C26.84 207.374 27.08 206.555 27.26 205.943L27.41 206.056Z" fill="url(#paint18_linear_26_305)"/>
<path d="M27.26 205.943L26.88 205.67C27.67 204.174 27.63 204.654 27.26 205.943Z" fill="url(#paint19_linear_26_305)"/>
<path d="M26.58 208.278C25.98 210.311 25.26 212.712 24.98 213.983L25.81 211.94C24.83 214.783 23.51 219.913 22.8 221.175C24.78 215.611 24.5 215.423 23.96 215.065L20.77 224.14C19.92 222.003 23.43 216.242 26.57 208.278H26.58Z" fill="url(#paint20_linear_26_305)"/>
<path d="M12.82 251.016C13.12 248.738 15.53 239.428 13.73 244.992C13.95 243.429 14.4 241.621 14.96 239.72C14.17 242.873 14.52 243.052 14.55 243.749C14.6 244.455 14.41 245.688 12.82 251.016Z" fill="url(#paint21_linear_26_305)"/>
<path d="M14.97 239.72C15.16 238.967 15.37 238.129 15.68 237.018C15.47 237.931 15.22 238.844 14.97 239.72Z" fill="url(#paint22_linear_26_305)"/>
<path d="M8.17 270.145L7.69 273.779C7.83 272.734 7.93 271.773 8.03 270.842L8.17 270.145Z" fill="url(#paint23_linear_26_305)"/>
<path d="M166 0C156.03 9.13129 143.9 20.7196 130.88 35.1508C131.99 35.4991 125.75 41.0343 125.85 42.5782C132.71 35.2166 119.66 48.9795 107.24 63.8719C105.67 65.717 104.12 67.5904 102.62 69.4449C101.12 71.2899 99.63 73.088 98.24 74.8389C95.49 78.3502 92.95 81.5038 91.06 84.0643C87.21 89.1571 85.51 91.5765 88.07 88.4982L90.62 84.4597L88.47 88.9971C82.34 96.368 73.86 106.46 70.7 112.136C70.39 112.465 73.1 108.427 77.52 102.355C81.9 96.2551 88.1 88.1969 94.44 80.2989C107.13 64.4933 120.74 49.6008 119.57 50.6834C122.6 48.3582 103.7 69.1154 86.17 92.4425C77.36 104.068 68.88 116.297 62.74 125.908C61.97 127.104 61.23 128.262 60.52 129.363C59.83 130.474 59.18 131.538 58.56 132.545C57.33 134.559 56.23 136.329 55.34 137.835C53.58 140.867 52.52 142.759 52.38 143.116L49.5 145.912C47.78 149.151 47.93 150.158 46.53 152.963C45.18 155.787 43.99 158.461 42.79 161.05C40.51 166.265 38.35 171.216 35.9 176.818L33.91 178.983C36.02 175.001 37.17 172.393 38.34 169.757C39.54 167.14 40.61 164.429 42.64 160.306C38.96 167.376 36.77 171.546 34.85 175.321C32.88 179.077 31.26 182.475 28.82 188.02C29.39 188.02 30.61 185.704 30.95 185.149C31.31 184.603 30.66 185.77 27.97 192.896C26.89 194.835 27.07 193.367 26.88 192.99C26.78 192.802 26.59 192.887 26.1 193.809C25.85 194.271 25.53 194.939 25.11 195.89C24.71 196.85 24.22 198.092 23.61 199.683C22.81 201.585 22.15 203.214 21.6 204.626C21.08 206.047 20.68 207.261 20.34 208.335C19.67 210.462 19.29 212.006 18.94 213.484C18.62 214.971 18.35 216.402 17.87 218.304C17.4 220.215 16.67 222.577 15.66 226.004C16.7 222.963 17.91 219.97 19.07 216.976C18.26 219.48 17.06 223.058 15.98 226.644C15.42 228.433 14.85 230.203 14.28 231.831C13.75 233.46 13.25 234.947 12.76 236.133C13.2 234.702 13.68 232.697 14.3 230.523C14.91 228.348 15.53 225.985 16.06 223.801C17.19 219.452 18.01 215.837 17.41 215.875C16.98 217.334 16.36 219.217 15.65 221.297C14.93 223.378 14.24 225.693 13.48 227.962C13.11 229.101 12.74 230.231 12.38 231.323C12.05 232.424 11.74 233.497 11.44 234.505C10.85 236.519 10.34 238.28 10 239.56L10.13 236.265C9.56 237.621 9.15 238.854 8.8 240.059C8.48 241.264 8.24 242.431 7.99 243.645C7.52 246.084 6.88 248.672 5.82 252.202C4.78 259.037 7.79 248.324 7.28 252.155C7.03 252.833 5.99 256.401 5.16 260.43C4.38 264.468 3.55 268.902 3.58 271.256C4.11 270.503 4.38 269.128 4.77 267.396C5.13 265.664 5.45 263.536 5.79 261.258C6.09 258.971 6.61 256.542 7.17 254.17C7.73 251.798 8.39 249.491 9.31 247.514C8.73 249.548 8.24 251.6 7.75 253.652C7.27 255.704 6.73 257.747 6.29 259.809C6.33 261.833 6.58 261.597 6.92 260.176C7.25 258.754 7.85 256.175 8.4 253.473C8.69 252.118 8.95 250.734 9.26 249.463C9.57 248.192 9.87 247.025 10.13 246.084C10.65 244.21 11.02 243.288 11.09 244.351C10.94 246.742 10.41 249.096 9.86 251.459C9.31 253.822 8.61 256.175 7.92 258.51C7.26 260.844 6.74 263.188 6.33 265.495C6.14 266.652 5.97 267.791 5.91 268.931C5.88 270.07 5.91 271.199 6.04 272.319C6.52 269.458 7.73 263.499 8.8 258.547C10.01 253.605 11.02 249.68 11.05 250.903C10.07 254.047 9.58 256.825 9.17 259.922C9.02 261.465 8.86 263.094 8.68 264.892C8.51 266.69 8.19 268.629 8 270.86C7.32 274.409 6.5 277.958 6.04 281.545C6.18 286.148 6.48 282.458 7.09 278.918C5.85 286.779 5.4 297.492 6.21 308.939C6.98 320.395 9.09 332.539 11.68 343.506C12.7 346.688 13.27 348.373 13.61 349.192C13.95 350.011 14.07 349.954 14.08 349.691C14.09 349.436 14.08 348.947 14.19 348.881C14.3 348.815 14.53 349.173 15.19 350.547C15.56 352.279 16.14 354.275 16.84 356.403C17.02 356.93 17.19 357.476 17.4 358.012C17.62 358.549 17.85 359.086 18.08 359.632C18.55 360.714 19.04 361.816 19.52 362.917C20.02 364.018 20.51 365.11 21 366.202C21.56 367.257 22.11 368.302 22.64 369.309C23.72 371.323 24.66 373.234 25.55 374.863C26.58 376.821 29.39 379.852 28.7 377.847L26.27 373.874L21.89 365.694L19.93 361.495C20.34 361.816 20.48 361.279 20.18 359.914C20.03 359.227 19.77 358.342 19.38 357.25C19.04 356.139 18.6 354.812 18.02 353.277C17.96 355.697 15.78 349.559 14.11 342.555C13.89 341.68 13.63 340.814 13.44 339.919C13.25 339.034 13.07 338.149 12.89 337.283C12.52 335.561 12.14 333.913 11.77 332.482C11.11 329.592 10.58 327.503 9.98 327.267L10.98 327.371C9.26 319.746 8.34 311.97 7.71 304.175L7.59 304.872C7.67 304.891 7.64 303.658 7.56 301.605C7.5 299.544 7.24 296.654 7.34 293.35C7.35 291.693 7.37 289.942 7.38 288.134C7.41 286.327 7.59 284.482 7.7 282.628C7.86 280.782 7.92 278.928 8.18 277.149C8.42 275.37 8.68 273.647 8.94 272.037C8.9 272.978 8.67 275.031 8.39 277.384C8.14 279.737 8.01 282.411 7.86 284.557C7.79 285.63 7.74 286.581 7.72 287.297C7.73 288.012 7.77 288.502 7.82 288.652C7.95 288.953 8.07 287.918 8.63 284.746C8.52 287.146 8.54 290.017 8.44 293.246C8.26 296.475 8.42 300.062 8.42 303.902C8.72 311.556 9.31 320.245 11.29 328.792L11.32 325.328C11.87 327.559 12.31 329.903 12.89 332.285C13.52 334.657 14.14 337.105 14.75 339.609C15.48 342.084 16.22 344.617 16.97 347.177C17.31 348.467 17.79 349.728 18.23 351.009C18.67 352.289 19.12 353.569 19.56 354.859C23.26 365.11 28.17 375.258 33.76 383.891L31.72 381.528C31.07 380.718 30.45 379.899 29.81 379.08C30.22 379.89 30.64 380.728 31.07 381.584C31.55 382.422 32.04 383.279 32.54 384.145C33.54 385.886 34.58 387.675 35.64 389.435C36.77 391.158 37.98 392.824 39.15 394.396C40.34 395.968 41.49 397.456 42.76 398.689C41.32 396.957 40.58 395.799 40.14 395.14C39.71 394.472 39.64 394.265 39.78 394.312C40.06 394.406 41.14 395.535 41.76 396.072C45.64 400.685 50.29 406.484 55.81 412.329C61.29 418.194 67.43 424.266 73.91 429.585C73.91 429.585 73.17 429.18 73.61 429.745C75.85 431.618 78.22 433.378 80.51 435.195C82.85 436.965 85.24 438.688 87.6 440.439C94.18 445.532 96.25 447.546 100.16 450.944C102.81 452.592 109.23 456.819 107.08 454.813C105.72 453.872 104.38 452.912 103.44 452.347C107.44 454.475 108.75 455.341 110.25 456.433C111.75 457.515 113.45 458.824 118.46 461.478C110.54 457.619 120.16 463.804 118.84 463.945C130.52 470.327 120.68 463.38 122.32 463.917C125.73 466.025 128.4 467.682 130.7 469.103C133.01 470.525 134.92 471.749 136.89 472.907C140.8 475.26 144.75 477.576 152.02 481.247C153.08 481.266 141.85 475.797 140.94 474.648C144.97 476.889 149.84 479.298 150.69 479.496C147.78 477.905 144.89 476.277 142 474.648C149.34 478.771 156.7 482.593 164.42 486.265C172.15 489.917 180.23 493.447 189.02 496.977L187.76 496.177C191.36 497.702 194.95 499.246 198.57 500.733L194.28 499.943C200.22 502.174 206.2 505.478 209.65 506.08L207.51 505.139L215.01 507.831L207.05 505.61C216.26 509.761 230.02 513.16 245.36 519.222C246.77 520.427 240.08 517.97 232.72 515.278C225.36 512.585 217.36 509.639 216.06 509.968C221 512.218 229.6 515.852 232.86 516.661C232.42 516.031 228.76 514.6 225.08 513.15C238.85 517.65 258.56 526.621 267.65 528.655L257.7 524.268C269.59 528.692 276.49 533.135 280.83 533.832L270.9 531.686C283.19 535.621 298.57 541.645 310.04 545.439C310.69 544.705 293.81 539.226 294.67 539.367L300.29 540.817C317.6 548.047 305.07 543.227 326.05 551.935L326.49 551.445C333.2 555.022 352.83 560.896 345.05 559.569L339.46 556.952L339.65 557.818C347.87 560.849 356.05 564.003 364.24 567.128C361.65 566.639 373.44 571.346 370 570.715L379.23 573.84C382.84 576.495 362.28 568.107 360.97 568.503C361.09 569.068 365.34 570.715 367.42 571.524C361.88 569.642 357.94 567.815 354.07 565.848C350.2 563.881 346.36 561.847 340.97 559.729L335.33 558.214L335.99 557.489C331.46 555.879 327.36 554.938 325.63 554.655C315.46 549.355 303.36 546.324 287.34 539.876C300.95 544.535 279.12 535.781 281.5 536.44C274.16 533.606 255.34 528.052 249.51 524.616C245.39 522.564 258.79 527.487 248.63 523.355C241.93 520.888 237.16 519.561 241.29 521.622C226.37 516.163 208.9 509.131 192.94 502.475L197.01 503.51C187.22 498.917 177.26 495.471 171.76 493.73C170.51 492.901 169.66 492.722 171.35 493.08C168.33 491.433 165.79 490.209 163.35 489.164C160.92 488.091 158.6 487.187 156.01 486.189C150.86 484.137 144.62 481.727 134.71 476.314C135.06 476.973 137.45 478.536 140.61 480.259C143.78 481.953 147.68 483.864 151.01 485.239L148.85 485.267C166.41 494.05 186.87 502.55 201.87 508.038L194.79 505.902C200.87 509.14 203.31 509.761 205.62 510.383C207.93 511.013 210.14 511.597 215.84 514.666C224.9 517.866 209.6 511.653 216.49 513.931C222.69 516.671 214.18 514.845 224.73 519.053C204.77 511.512 183.56 503.068 162.62 493.457C141.69 483.855 121.05 473.02 102.37 461.008C101.55 460.706 103.49 462.006 105.41 463.305C104.55 462.862 103.34 462.175 101.84 461.271C100.36 460.339 98.57 459.191 96.54 457.863C92.49 455.181 87.52 451.641 82.04 447.471C71.14 439.064 58.44 427.815 47.55 415.502C36.55 403.292 27.51 390.038 21.67 379.485C20.11 376.896 18.91 374.392 17.76 372.189C16.62 369.987 15.56 368.057 14.81 366.372C13.22 363.049 12.09 361.006 11.58 360.667C11.34 359.603 12.01 360.648 12.28 360.902C12.58 361.147 12.34 360.658 10.8 356.356C10.34 355.64 9.3 353.503 9.66 355.65C6.37 344.523 3.02 331.456 1.32 317.533C1.2 316.667 1.09 315.792 0.97 314.926C0.9 314.05 0.83 313.175 0.75 312.29C0.61 310.53 0.47 308.76 0.33 306.99L0.23 305.663L0.19 304.326L0.12 301.653L0 296.306C0.06 294.526 0.12 292.747 0.18 290.968L0.28 288.313C0.3 287.428 0.36 286.544 0.46 285.668C0.63 283.908 0.81 282.157 0.98 280.415C1.07 279.549 1.16 278.683 1.26 277.817C1.37 276.951 1.53 276.104 1.66 275.247C1.13 275.812 1.67 269.721 1.37 269.571C1.63 268.403 1.95 267.142 2.27 265.796C2.58 264.459 2.88 263.038 3.17 261.56C3.69 258.604 4.42 255.497 5.04 252.381C5.64 249.265 6.4 246.206 7.09 243.363C7.76 240.52 8.54 237.95 9.28 235.841L8 238.496C10.4 229.468 13.29 220.563 16.4 211.742C16.46 211.328 16.14 212.006 15.73 213.06C15.34 214.124 14.82 215.545 14.43 216.6C15.29 213.663 15.99 211.912 16.58 210.867C17.15 209.813 17.57 209.427 17.89 209.219C18.44 207.214 18.96 205.19 19.55 203.195L21.35 197.198C25.29 188.876 29.84 177.552 34.4 168.505C38.93 159.449 41.89 150.996 47.5 142.74C58.09 124.148 70.21 105.565 83.76 88.9971C86.98 83.443 91.34 79.4705 98.17 71.0546C96.95 72.3537 95.76 73.681 94.57 75.0084C101 66.0559 95.32 74.7636 101.04 67.355C104.69 62.1492 101.23 65.0769 96.06 71.996C92.41 76.025 94.24 73.2292 96.56 70.1321C118.74 43.6701 144.56 18.1873 166 0Z" fill="url(#paint24_linear_26_305)"/>
<path d="M610.523 748.955C610.823 749.449 611.205 750.087 611.68 750.893H611.69C615.413 757.402 614.484 756.563 613.166 755.086C613.035 755.123 612.581 754.654 611.64 753.407C612.018 753.765 612.625 754.479 613.166 755.086C613.433 755.008 612.342 752.798 611.3 750.78C610.851 749.929 610.421 749.111 610.106 748.51C609.135 747.47 607.965 746.169 606.77 744.548C606 743.522 605.22 742.374 604.43 741.103C603.6 739.851 602.76 738.476 601.95 736.97C597.692 731.141 593.427 725.462 589.024 719.85C589.262 720.324 589.489 720.796 589.72 721.278C591.01 723.942 592.65 726.794 596.94 732.593C592.47 725.975 600.6 736.584 596.99 730.964C602.05 736.961 606.25 746.073 613.47 757.671C612.24 755.553 611.9 754.875 612.17 754.941C612.41 755.016 613.21 755.854 613.89 756.946C614.87 758.961 616.06 761.267 617.36 763.715C618.57 766.19 619.86 768.826 621.14 771.453C622.39 774.098 623.51 776.8 624.64 779.313C625.21 780.556 625.67 781.808 626.13 782.994C626.503 783.978 626.863 784.917 627.203 785.806L627.41 786.345C627.43 785.94 627.62 785.893 627.81 785.987C629.11 789.715 629.72 792.2 630.47 794.752C630.82 796.041 631.23 797.331 631.56 798.865C631.89 800.39 632.27 802.132 632.73 804.269C632.98 805.257 633.25 806.255 633.48 807.272C633.71 808.288 633.93 809.315 634.16 810.359C634.61 812.44 635.13 814.549 635.57 816.704C636.42 821.035 637.37 825.468 638.12 830.025C639.72 839.109 642.35 838.764 643.29 848.112C644.27 857.45 651 859 651 859C649.46 835.711 644.54 833.715 638.05 809.277C634.82 797.058 630.74 785.197 625.87 774.192C621.01 763.178 615.36 753.039 609.7 743.946L610.68 745.866C608.036 742.107 601.818 732.578 601.907 731.867L599.99 730.785C595.02 724.412 596.82 725.58 598.5 726.549C599.34 727.039 600.15 727.472 600.05 726.86C599.93 726.267 599.01 724.563 596.08 720.995C598.81 724.836 598.55 725.457 597.22 724.346C595.84 723.264 593.26 720.543 591.17 717.766C591.98 719.188 590.69 719.997 593.07 722.878C594.87 725.608 596.52 728.423 598.19 731.219C598.56 731.096 599.4 731.83 600.5 733.082C601.55 734.363 602.85 736.17 604.2 738.147C605.58 740.105 606.86 742.308 608.03 744.285L608.205 744.585C609.294 746.449 610.261 748.105 610.85 749.302L610.658 749.098C610.614 749.051 610.568 749.003 610.523 748.955Z" fill="url(#paint25_linear_26_305)"/>
<path d="M587.56 717.22C586.66 715.742 585.48 714.02 583.67 711.779C583.255 711.521 582.849 711.241 583.07 711.624C583.371 712.012 583.658 712.391 583.93 712.758C583.441 712.164 583.179 711.813 583.07 711.624C579.934 707.584 575.287 702.505 570.644 697.879C571.422 698.727 572.187 699.579 572.92 700.445C578.614 706.913 583.913 713.337 589.024 719.85C588.601 719.01 588.142 718.159 587.56 717.22Z" fill="url(#paint26_linear_26_305)"/>
<path fill-rule="evenodd" clip-rule="evenodd" d="M503.15 640.216L499.01 636.893L499 636.874C498.33 636.931 497.26 636.47 495.89 635.688C494.51 634.907 492.78 633.862 490.85 632.638C490.624 632.496 490.394 632.351 490.162 632.205C489.889 632.032 489.611 631.856 489.33 631.678C487.818 630.722 486.205 629.7 484.53 628.685C482.28 627.329 479.94 625.954 477.52 624.881C479.48 625.73 481.398 626.651 483.313 627.57L483.81 627.809L490.07 630.803L494.06 634.201C496.87 635.726 497.5 635.971 496.95 635.331C496.571 634.89 495.58 634.118 494.267 633.194C495.085 633.758 496.002 634.398 497 635.092L497.027 635.111C498.305 636.001 499.713 636.982 501.208 638.014L503.15 640.216ZM511.214 644.733L510.97 644.565C510.317 644.135 509.663 643.703 509.011 643.271C508.165 642.711 507.321 642.153 506.48 641.6C504.653 640.378 502.876 639.164 501.208 638.014L501.2 638.004C504.89 640.275 508.195 642.529 511.214 644.733ZM523.454 652.623L522.62 652.049L523.22 652.614C520.91 651.249 518.19 649.498 515.33 647.568L514.767 647.18C513.604 646.378 512.416 645.559 511.214 644.733C516.162 648.345 520.338 651.821 524.167 655.007L524.169 655.008C524.586 655.356 525 655.7 525.41 656.041C526.853 657.326 528.256 658.557 529.622 659.755L529.632 659.764C531.234 661.17 532.785 662.532 534.29 663.882C534.963 664.476 535.634 665.056 536.305 665.627C537.039 666.251 537.773 666.864 538.51 667.469C539.91 668.646 541.31 669.794 542.76 670.886C542.951 671.019 543.141 671.153 543.331 671.288C546.858 673.797 550.102 676.529 553.31 679.245C556.6 682.201 559.84 685.157 562.9 688.283C565.127 690.452 567.258 692.712 569.405 694.988L569.41 694.994C570.288 695.925 571.169 696.859 572.06 697.79C573.456 699.344 574.885 700.887 576.325 702.443L576.327 702.444L576.329 702.446C577.942 704.188 579.569 705.946 581.18 707.75C584.44 710.857 583.09 709.19 580.89 706.63C579.961 705.513 578.833 704.262 577.839 703.159L577.831 703.151L577.83 703.15C576.515 701.692 575.434 700.494 575.36 700.21C576.78 700.699 578.16 702.403 579.62 704.276L579.746 704.445C581.139 706.308 582.625 708.294 584.42 709.463C584.82 709.529 584.28 708.635 583.18 707.167C582.06 705.707 580.44 703.617 578.48 701.443C576.137 698.725 573.404 695.774 571.031 693.211C569.526 691.585 568.165 690.115 567.14 688.96C562.646 684.902 561.968 684.57 560.567 683.885C560.356 683.782 560.129 683.671 559.87 683.538C559.383 682.72 557.722 680.967 556.119 679.275L556.118 679.273C554.696 677.772 553.32 676.32 552.85 675.612C550.837 674.081 549.048 672.627 547.366 671.259L547.364 671.258L547.363 671.257C546.615 670.648 545.887 670.057 545.17 669.483C544.027 668.561 542.95 667.645 541.894 666.747L541.893 666.746C540.805 665.821 539.741 664.916 538.65 664.042C535.846 661.72 533.019 659.426 529.653 657.039C529.283 656.732 528.036 655.747 526.76 654.779C525.212 653.63 523.601 652.535 523.454 652.623ZM529.253 656.756C527.642 655.625 525.906 654.471 523.99 653.282C523.55 652.855 523.398 652.655 523.454 652.623L525.85 654.271L529.02 656.577C529.105 656.643 529.183 656.703 529.253 656.756ZM529.653 657.039C529.521 656.945 529.387 656.851 529.253 656.756C529.788 657.167 529.867 657.216 529.653 657.039ZM492.32 631.866C492.878 632.239 493.532 632.686 494.267 633.194C493.675 632.777 493.017 632.329 492.32 631.866ZM567.37 691.719L571.2 693.931L573.16 696.576L567.37 691.719Z" fill="url(#paint27_linear_26_305)"/>
<path d="M538.51 667.469C537.773 666.864 537.039 666.251 536.305 665.627C536.57 665.887 536.664 666.043 536.51 666.047C534.88 665.097 533.09 663.741 531.3 662.263C529.48 660.823 527.66 659.26 526.04 657.839C524.43 656.408 522.94 655.193 521.88 654.374C520.81 653.555 520.14 653.141 520.07 653.414C521.45 654.685 523.4 656.135 525.44 657.801C527.49 659.448 529.74 661.171 531.84 662.828C533.92 664.513 535.89 666.095 537.43 667.384C538.98 668.664 540.05 669.728 540.44 670.246C542.35 671.47 537.66 667.215 542.58 670.858C546.16 673.87 547.54 675.301 548.57 676.421C549.59 677.551 550.25 678.389 552.17 680.413L556.5 683.35C556.43 684.395 561.58 689.026 567.53 694.844C568.556 695.821 569.6 696.839 570.644 697.879C570.054 697.234 569.456 696.592 568.86 695.945C567.47 694.449 566.11 692.914 564.66 691.427C561.75 688.452 558.82 685.393 555.65 682.418C552.55 679.368 549.2 676.431 545.79 673.371L545.056 672.749C544.483 672.264 543.909 671.777 543.331 671.288C543.141 671.153 542.951 671.019 542.76 670.886C541.31 669.794 539.91 668.646 538.51 667.469Z" fill="url(#paint28_linear_26_305)"/>
<path fill-rule="evenodd" clip-rule="evenodd" d="M257.247 530.926C255.049 529.78 252.835 528.625 253.88 528.645L243.06 524.127C247.657 525.925 252.492 527.785 257.249 529.615C269.948 534.501 282.084 539.17 287.62 541.862L283.94 541.551C281.072 540.515 277.417 539.008 273.863 537.543L273.858 537.541L273.855 537.54C267.34 534.854 261.168 532.31 260.814 533.06C260.78 532.768 259.021 531.85 257.25 530.927L257.247 530.926ZM260.814 533.06C260.815 533.071 260.814 533.08 260.811 533.089C260.808 533.096 260.805 533.102 260.8 533.107C260.802 533.09 260.807 533.075 260.814 533.06ZM274.4 536.675L268.79 535.225C261.512 532.091 266.301 533.798 270.894 535.436C272.164 535.889 273.419 536.337 274.4 536.675Z" fill="url(#paint29_linear_26_305)"/>
<defs>
<linearGradient id="paint0_linear_26_305" x1="325.5" y1="0" x2="325.5" y2="859" gradientUnits="userSpaceOnUse">
<stop stop-color="#FFC700"/>
<stop offset="0.477083" stop-color="#FF6600"/>
<stop offset="0.9875" stop-color="#EA4335"/>
</linearGradient>
<linearGradient id="paint1_linear_26_305" x1="325.5" y1="0" x2="325.5" y2="859" gradientUnits="userSpaceOnUse">
<stop stop-color="#FFC700"/>
<stop offset="0.477083" stop-color="#FF6600"/>
<stop offset="0.9875" stop-color="#EA4335"/>
</linearGradient>
<linearGradient id="paint2_linear_26_305" x1="325.5" y1="0" x2="325.5" y2="859" gradientUnits="userSpaceOnUse">
<stop stop-color="#FFC700"/>
<stop offset="0.477083" stop-color="#FF6600"/>
<stop offset="0.9875" stop-color="#EA4335"/>
</linearGradient>
<linearGradient id="paint3_linear_26_305" x1="325.5" y1="0" x2="325.5" y2="859" gradientUnits="userSpaceOnUse">
<stop stop-color="#FFC700"/>
<stop offset="0.477083" stop-color="#FF6600"/>
<stop offset="0.9875" stop-color="#EA4335"/>
</linearGradient>
<linearGradient id="paint4_linear_26_305" x1="325.5" y1="0" x2="325.5" y2="859" gradientUnits="userSpaceOnUse">
<stop stop-color="#FFC700"/>
<stop offset="0.477083" stop-color="#FF6600"/>
<stop offset="0.9875" stop-color="#EA4335"/>
</linearGradient>
<linearGradient id="paint5_linear_26_305" x1="325.5" y1="0" x2="325.5" y2="859" gradientUnits="userSpaceOnUse">
<stop stop-color="#FFC700"/>
<stop offset="0.477083" stop-color="#FF6600"/>
<stop offset="0.9875" stop-color="#EA4335"/>
</linearGradient>
<linearGradient id="paint6_linear_26_305" x1="325.5" y1="0" x2="325.5" y2="859" gradientUnits="userSpaceOnUse">
<stop stop-color="#FFC700"/>
<stop offset="0.477083" stop-color="#FF6600"/>
<stop offset="0.9875" stop-color="#EA4335"/>
</linearGradient>
<linearGradient id="paint7_linear_26_305" x1="325.5" y1="0" x2="325.5" y2="859" gradientUnits="userSpaceOnUse">
<stop stop-color="#FFC700"/>
<stop offset="0.477083" stop-color="#FF6600"/>
<stop offset="0.9875" stop-color="#EA4335"/>
</linearGradient>
<linearGradient id="paint8_linear_26_305" x1="325.5" y1="0" x2="325.5" y2="859" gradientUnits="userSpaceOnUse">
<stop stop-color="#FFC700"/>
<stop offset="0.477083" stop-color="#FF6600"/>
<stop offset="0.9875" stop-color="#EA4335"/>
</linearGradient>
<linearGradient id="paint9_linear_26_305" x1="325.5" y1="0" x2="325.5" y2="859" gradientUnits="userSpaceOnUse">
<stop stop-color="#FFC700"/>
<stop offset="0.477083" stop-color="#FF6600"/>
<stop offset="0.9875" stop-color="#EA4335"/>
</linearGradient>
<linearGradient id="paint10_linear_26_305" x1="325.5" y1="0" x2="325.5" y2="859" gradientUnits="userSpaceOnUse">
<stop stop-color="#FFC700"/>
<stop offset="0.477083" stop-color="#FF6600"/>
<stop offset="0.9875" stop-color="#EA4335"/>
</linearGradient>
<linearGradient id="paint11_linear_26_305" x1="325.5" y1="0" x2="325.5" y2="859" gradientUnits="userSpaceOnUse">
<stop stop-color="#FFC700"/>
<stop offset="0.477083" stop-color="#FF6600"/>
<stop offset="0.9875" stop-color="#EA4335"/>
</linearGradient>
<linearGradient id="paint12_linear_26_305" x1="325.5" y1="0" x2="325.5" y2="859" gradientUnits="userSpaceOnUse">
<stop stop-color="#FFC700"/>
<stop offset="0.477083" stop-color="#FF6600"/>
<stop offset="0.9875" stop-color="#EA4335"/>
</linearGradient>
<linearGradient id="paint13_linear_26_305" x1="325.5" y1="0" x2="325.5" y2="859" gradientUnits="userSpaceOnUse">
<stop stop-color="#FFC700"/>
<stop offset="0.477083" stop-color="#FF6600"/>
<stop offset="0.9875" stop-color="#EA4335"/>
</linearGradient>
<linearGradient id="paint14_linear_26_305" x1="325.5" y1="0" x2="325.5" y2="859" gradientUnits="userSpaceOnUse">
<stop stop-color="#FFC700"/>
<stop offset="0.477083" stop-color="#FF6600"/>
<stop offset="0.9875" stop-color="#EA4335"/>
</linearGradient>
<linearGradient id="paint15_linear_26_305" x1="325.5" y1="0" x2="325.5" y2="859" gradientUnits="userSpaceOnUse">
<stop stop-color="#FFC700"/>
<stop offset="0.477083" stop-color="#FF6600"/>
<stop offset="0.9875" stop-color="#EA4335"/>
</linearGradient>
<linearGradient id="paint16_linear_26_305" x1="325.5" y1="0" x2="325.5" y2="859" gradientUnits="userSpaceOnUse">
<stop stop-color="#FFC700"/>
<stop offset="0.477083" stop-color="#FF6600"/>
<stop offset="0.9875" stop-color="#EA4335"/>
</linearGradient>
<linearGradient id="paint17_linear_26_305" x1="325.5" y1="0" x2="325.5" y2="859" gradientUnits="userSpaceOnUse">
<stop stop-color="#FFC700"/>
<stop offset="0.477083" stop-color="#FF6600"/>
<stop offset="0.9875" stop-color="#EA4335"/>
</linearGradient>
<linearGradient id="paint18_linear_26_305" x1="325.5" y1="0" x2="325.5" y2="859" gradientUnits="userSpaceOnUse">
<stop stop-color="#FFC700"/>
<stop offset="0.477083" stop-color="#FF6600"/>
<stop offset="0.9875" stop-color="#EA4335"/>
</linearGradient>
<linearGradient id="paint19_linear_26_305" x1="325.5" y1="0" x2="325.5" y2="859" gradientUnits="userSpaceOnUse">
<stop stop-color="#FFC700"/>
<stop offset="0.477083" stop-color="#FF6600"/>
<stop offset="0.9875" stop-color="#EA4335"/>
</linearGradient>
<linearGradient id="paint20_linear_26_305" x1="325.5" y1="0" x2="325.5" y2="859" gradientUnits="userSpaceOnUse">
<stop stop-color="#FFC700"/>
<stop offset="0.477083" stop-color="#FF6600"/>
<stop offset="0.9875" stop-color="#EA4335"/>
</linearGradient>
<linearGradient id="paint21_linear_26_305" x1="325.5" y1="0" x2="325.5" y2="859" gradientUnits="userSpaceOnUse">
<stop stop-color="#FFC700"/>
<stop offset="0.477083" stop-color="#FF6600"/>
<stop offset="0.9875" stop-color="#EA4335"/>
</linearGradient>
<linearGradient id="paint22_linear_26_305" x1="325.5" y1="0" x2="325.5" y2="859" gradientUnits="userSpaceOnUse">
<stop stop-color="#FFC700"/>
<stop offset="0.477083" stop-color="#FF6600"/>
<stop offset="0.9875" stop-color="#EA4335"/>
</linearGradient>
<linearGradient id="paint23_linear_26_305" x1="325.5" y1="0" x2="325.5" y2="859" gradientUnits="userSpaceOnUse">
<stop stop-color="#FFC700"/>
<stop offset="0.477083" stop-color="#FF6600"/>
<stop offset="0.9875" stop-color="#EA4335"/>
</linearGradient>
<linearGradient id="paint24_linear_26_305" x1="325.5" y1="0" x2="325.5" y2="859" gradientUnits="userSpaceOnUse">
<stop stop-color="#FFC700"/>
<stop offset="0.477083" stop-color="#FF6600"/>
<stop offset="0.9875" stop-color="#EA4335"/>
</linearGradient>
<linearGradient id="paint25_linear_26_305" x1="325.5" y1="0" x2="325.5" y2="859" gradientUnits="userSpaceOnUse">
<stop stop-color="#FFC700"/>
<stop offset="0.477083" stop-color="#FF6600"/>
<stop offset="0.9875" stop-color="#EA4335"/>
</linearGradient>
<linearGradient id="paint26_linear_26_305" x1="325.5" y1="0" x2="325.5" y2="859" gradientUnits="userSpaceOnUse">
<stop stop-color="#FFC700"/>
<stop offset="0.477083" stop-color="#FF6600"/>
<stop offset="0.9875" stop-color="#EA4335"/>
</linearGradient>
<linearGradient id="paint27_linear_26_305" x1="325.5" y1="0" x2="325.5" y2="859" gradientUnits="userSpaceOnUse">
<stop stop-color="#FFC700"/>
<stop offset="0.477083" stop-color="#FF6600"/>
<stop offset="0.9875" stop-color="#EA4335"/>
</linearGradient>
<linearGradient id="paint28_linear_26_305" x1="325.5" y1="0" x2="325.5" y2="859" gradientUnits="userSpaceOnUse">
<stop stop-color="#FFC700"/>
<stop offset="0.477083" stop-color="#FF6600"/>
<stop offset="0.9875" stop-color="#EA4335"/>
</linearGradient>
<linearGradient id="paint29_linear_26_305" x1="325.5" y1="0" x2="325.5" y2="859" gradientUnits="userSpaceOnUse">
<stop stop-color="#FFC700"/>
<stop offset="0.477083" stop-color="#FF6600"/>
<stop offset="0.9875" stop-color="#EA4335"/>
</linearGradient>
</defs>
</svg>
