<svg width="240" height="240" viewBox="0 0 240 240" fill="none" xmlns="http://www.w3.org/2000/svg">
<g clip-path="url(#clip0_33_14283)">
<path d="M155.077 11.8706L8.48207 96.7904C7.14725 97.5636 6.69221 99.2718 7.46545 100.607L80.2538 226.259C81.0271 227.594 82.7352 228.049 84.07 227.276L230.665 142.356C232 141.583 232.455 139.875 231.681 138.54L158.893 12.8873C158.12 11.5524 156.412 11.0974 155.077 11.8706ZM155.46 18.1032L163.859 32.6016L22.0967 114.722L13.698 100.223L155.46 18.1032ZM83.6868 221.043L24.8962 119.555L166.658 37.4344L225.449 138.923L83.6868 221.043Z" fill="#FFB403"/>
<path d="M141.728 38.967C143.063 38.1939 143.518 36.4853 142.745 35.1508C141.972 33.8162 140.263 33.3611 138.928 34.1342C137.594 34.9072 137.139 36.6158 137.912 37.9503C138.685 39.2849 140.393 39.74 141.728 38.967Z" fill="#FFB403"/>
<path d="M153.004 32.4347C154.339 31.6617 154.794 29.9531 154.021 28.6186C153.248 27.284 151.539 26.8289 150.205 27.6019C148.87 28.375 148.415 30.0836 149.188 31.4181C149.961 32.7526 151.67 33.2078 153.004 32.4347Z" fill="#FFB403"/>
<path d="M130.451 45.4994C131.786 44.7264 132.241 43.0178 131.468 41.6833C130.695 40.3487 128.986 39.8936 127.652 40.6666C126.317 41.4397 125.862 43.1483 126.635 44.4828C127.408 45.8173 129.117 46.2725 130.451 45.4994Z" fill="#FFB403"/>
<path d="M145.388 91.7106L164.719 80.5124C166.054 79.7392 166.509 78.031 165.735 76.6962C164.962 75.3614 163.254 74.9064 161.919 75.6796L142.588 86.8778C141.253 87.651 140.798 89.3592 141.571 90.694C142.345 92.0288 144.053 92.4838 145.388 91.7106Z" fill="#FFB403"/>
<path d="M153.786 106.209L173.117 95.0107C174.452 94.2375 174.907 92.5293 174.134 91.1945C173.361 89.8597 171.653 89.4047 170.318 90.1779L150.987 101.376C149.652 102.149 149.197 103.857 149.97 105.192C150.743 106.527 152.451 106.982 153.786 106.209Z" fill="#FFB403"/>
<path d="M162.185 120.707L181.516 109.509C182.851 108.736 183.306 107.028 182.533 105.693C181.759 104.358 180.051 103.903 178.716 104.676L159.385 115.875C158.05 116.648 157.595 118.356 158.369 119.691C159.142 121.026 160.85 121.481 162.185 120.707Z" fill="#FFB403"/>
<path d="M170.584 135.206L189.915 124.008C191.25 123.234 191.705 121.526 190.931 120.191C190.158 118.857 188.45 118.401 187.115 119.175L167.784 130.373C166.449 131.146 165.994 132.854 166.767 134.189C167.541 135.524 169.249 135.979 170.584 135.206Z" fill="#FFB403"/>
<path d="M81.1609 130.474C80.7035 131.326 80.7204 132.355 81.2056 133.193L99.8693 165.412C100.355 166.249 101.239 166.776 102.206 166.803C102.733 166.818 103.244 166.684 103.685 166.428C104.055 166.214 104.376 165.915 104.618 165.547L127.505 130.774C128.086 129.891 128.119 128.755 127.589 127.839C127.059 126.924 126.057 126.387 125.001 126.452L83.4507 129.006C82.4845 129.065 81.6184 129.62 81.1609 130.474ZM88.3034 134.304L119.769 132.369L102.437 158.702L88.3034 134.304Z" fill="#FFB403"/>
<path d="M98.2431 105.036L57.1643 128.832C55.8295 129.605 55.3745 131.313 56.1477 132.648L87.876 187.42C88.6492 188.755 90.3573 189.21 91.6921 188.436L160.962 148.309C162.297 147.536 162.752 145.828 161.979 144.493L130.251 89.7216C129.477 88.3868 127.769 87.9318 126.434 88.705L107.909 99.4366C106.574 100.21 106.119 101.918 106.892 103.253C107.665 104.588 109.373 105.043 110.708 104.269L126.818 94.9376L155.746 144.876L91.309 182.204L62.3803 132.265L101.043 109.869C102.377 109.095 102.833 107.387 102.059 106.052C101.286 104.718 99.5779 104.262 98.2431 105.036Z" fill="#FFB403"/>
<path d="M162.209 46.4666L34.945 120.188C33.6101 120.961 33.1551 122.669 33.9283 124.004L84.3203 210.995C85.0935 212.329 86.8016 212.784 88.1365 212.011L192.847 151.354C194.182 150.581 194.637 148.873 193.864 147.538C193.09 146.203 191.382 145.748 190.048 146.521L87.7533 205.779L40.1609 123.621L162.592 52.6991L210.184 134.857L199.713 140.922C198.378 141.696 197.923 143.404 198.696 144.739C199.47 146.073 201.178 146.528 202.513 145.755L215.4 138.29C216.735 137.516 217.19 135.808 216.417 134.474L166.025 47.4832C165.252 46.1484 163.543 45.6933 162.209 46.4666Z" fill="#FFB403"/>
</g>
<defs>
<clipPath id="clip0_33_14283">
<rect width="175" height="175" fill="white" transform="translate(0 87.7192) rotate(-30.0829)"/>
</clipPath>
</defs>
</svg>
