<svg width="44" height="44" viewBox="0 0 44 44" fill="none" xmlns="http://www.w3.org/2000/svg">
<path d="M34.3826 12.3412C34.3826 10.9883 33.2757 9.88135 31.9228 9.88135H2.45985C1.10703 9.88135 0 10.9883 0 12.3412V30.7572C0 32.1101 1.10703 33.2171 2.45985 33.2171H31.9229C33.2758 33.2171 34.3828 32.1101 34.3828 30.7572L34.3826 12.3412Z" fill="#C3C6C8"/>
<path d="M17.1913 19.0608L0 30.0583V30.7569C0 32.1099 1.10703 33.2168 2.45985 33.2168H31.9229C33.2758 33.2168 34.3828 32.1099 34.3828 30.7569V30.0583L17.1913 19.0608Z" fill="#E8E8E8"/>
<path d="M17.1913 24.0371L34.3826 13.0391V12.3407C34.3826 10.9878 33.2757 9.88086 31.9228 9.88086H2.45985C1.10703 9.88097 0 10.9879 0 12.3408V13.0393L17.1913 24.0371Z" fill="#E8E8E8"/>
<path d="M34.2506 11.5496L17.1913 22.4625L0.132068 11.5496C0.0469296 11.7983 0 12.0644 0 12.3408V13.0393L17.1913 24.0372L34.3826 13.0393V12.3408C34.3826 12.0644 34.3357 11.7983 34.2506 11.5496Z" fill="#AF8400"/>
<path d="M25.2917 24.8617L31.5914 18.562C32.2938 17.8598 32.8684 18.0978 32.8684 19.091V21.8648H42.1941C43.1873 21.8648 44 22.6774 44 23.6706V28.6068C44 29.6 43.1873 30.4127 42.1941 30.4127H32.8684V33.1864C32.8684 34.1797 32.2938 34.4176 31.5914 33.7153L25.2917 27.4156C24.5895 26.7134 24.5895 25.5639 25.2917 24.8617Z" fill="#AF8400"/>
</svg>
