<svg width="128" height="156" viewBox="0 0 128 156" fill="none" xmlns="http://www.w3.org/2000/svg">
<path fill-rule="evenodd" clip-rule="evenodd" d="M89.3936 37.5109C87.5979 35.7679 83.123 33.0658 76.7498 31.0561C70.0379 28.9515 63.0323 28.2665 56.3433 30.7702M89.3936 37.5109C94.3221 42.3228 100.935 50.7114 96.9525 61.9825C92.5573 74.4206 83.3711 77.5793 67.422 82.0497C58.6406 84.5111 51.8173 87.9906 46.6143 92.7282C41.372 97.5015 38.3284 103.049 36.3122 108.755C34.7275 113.239 37.2386 118.122 41.921 119.661C46.6034 121.2 51.6839 118.811 53.2687 114.327C54.6365 110.456 56.3725 107.567 58.9678 105.204C61.6023 102.805 65.6747 100.448 72.5094 98.5319L72.8726 98.4301C88.0838 94.1677 106.31 89.0605 113.909 67.5546C121.38 46.4108 107.993 31.2183 102.129 25.4957L102.123 25.49L102.117 25.4844C97.5903 21.0822 90.1831 17.2395 82.2688 14.7449L82.2628 14.743L82.2568 14.7411C73.3079 11.9338 61.7171 10.3016 49.7746 14.7719L49.7743 14.772C40.2246 18.3469 33.8779 23.8727 29.9155 28.5606C27.9406 30.8971 26.5491 33.0342 25.6273 34.6434C25.1654 35.4499 24.8179 36.1299 24.5713 36.6443C24.4479 36.9017 24.3494 37.1184 24.2742 37.2894C24.2366 37.375 24.2048 37.4492 24.1786 37.5115C24.1654 37.5427 24.1537 37.5709 24.1433 37.596L24.1288 37.6314L24.1223 37.6474L24.1192 37.655C24.1178 37.6586 24.1163 37.6622 32.465 40.7908L24.1163 37.6622C22.334 42.0775 24.6271 47.0575 29.2379 48.7854C33.8182 50.5018 38.9626 48.3634 40.7777 44.007C40.7866 43.987 40.8076 43.9408 40.8412 43.8706C40.9241 43.6978 41.0822 43.3831 41.325 42.9591C41.8129 42.1074 42.6277 40.841 43.8399 39.4068C46.2516 36.5534 50.2017 33.0694 56.343 30.7703" fill="#FFB403"/>
<path d="M30.8322 151.675C37.3668 153.822 44.5415 150.25 46.8573 143.697C49.1731 137.143 45.7532 130.089 39.2186 127.942C32.684 125.795 25.5094 129.367 23.1935 135.92C20.8777 142.474 24.2977 149.528 30.8322 151.675Z" fill="#FFB403"/>
</svg>
