<?xml version="1.0" encoding="utf-8"?><svg viewBox="0 0 512 512" xmlns="http://www.w3.org/2000/svg" xmlns:xlink="http://www.w3.org/1999/xlink"><style>:root>svg{display:none}:root>svg:target{display:block}</style><svg viewBox="0 0 16 16" id="arrow-right" xmlns="http://www.w3.org/2000/svg"><path d="M10.677 6.81H1.69a.357.357 0 0 0-.357.357v1.666c0 .198.16.357.357.357h8.987v1.371c0 .637.77.955 1.22.505l2.56-2.56a.714.714 0 0 0 0-1.011l-2.56-2.561a.714.714 0 0 0-1.22.505v1.37Z"/></svg><svg viewBox="0 0 471.2 261.2" xml:space="preserve" id="arrow-right-link" xmlns="http://www.w3.org/2000/svg"><path d="m413.8 115.6-94.4-94.4L340.6 0l130.6 130.6-130.6 130.6-21.2-21.2 94.4-94.4 3.2-3.2c6.6-6.5 6.6-17.1 0-23.7l-3.2-3.1z"/><path d="M331.6 115.6H0v30h331.6l-3.7-11.7c-.7-2.2-.7-4.5 0-6.7l3.7-11.6z"/></svg><svg viewBox="0 0 60 60" xml:space="preserve" id="backend" xmlns="http://www.w3.org/2000/svg"><path d="m52.179 41.429-5.596 8.04-3.949-3.241a1 1 0 0 0-1.407.138.998.998 0 0 0 .139 1.407l4.786 3.929a.998.998 0 0 0 1.455-.201l6.214-8.929a1 1 0 0 0-.25-1.392.994.994 0 0 0-1.392.249zM10.5 6C8.019 6 6 8.019 6 10.5S8.019 15 10.5 15s4.5-2.019 4.5-4.5S12.981 6 10.5 6zm0 7C9.122 13 8 11.879 8 10.5S9.122 8 10.5 8 13 9.121 13 10.5 11.878 13 10.5 13z"/><circle cx="50" cy="9" r="1"/><circle cx="46" cy="9" r="1"/><circle cx="52" cy="12" r="1"/><circle cx="48" cy="12" r="1"/><circle cx="42" cy="9" r="1"/><circle cx="44" cy="12" r="1"/><circle cx="38" cy="9" r="1"/><circle cx="40" cy="12" r="1"/><circle cx="34" cy="9" r="1"/><circle cx="36" cy="12" r="1"/><path d="M60 16.392V4.608A4.613 4.613 0 0 0 55.392 0H4.608A4.613 4.613 0 0 0 0 4.608v11.783C0 17.86.703 19.155 1.777 20 .703 20.845 0 22.14 0 23.608v11.783C0 36.86.703 38.155 1.777 39 .703 39.845 0 41.14 0 42.608v11.783A4.613 4.613 0 0 0 4.608 59h37.4c1.538.642 3.224 1 4.992 1 7.168 0 13-5.832 13-13 0-2.821-.913-5.428-2.446-7.562C59.016 38.656 60 37.119 60 35.392V23.608c0-1.469-.703-2.764-1.777-3.608C59.297 19.155 60 17.86 60 16.392zM38.697 57H4.608A2.611 2.611 0 0 1 2 54.392V42.608A2.611 2.611 0 0 1 4.608 40h31.45c-.07.109-.132.224-.198.334a13.41 13.41 0 0 0-.5.912c-.079.159-.159.317-.231.479a14.146 14.146 0 0 0-.419 1.073c-.055.162-.113.321-.162.485-.099.33-.185.663-.258 1-.025.119-.043.241-.066.361-.05.272-.093.545-.126.821-.014.121-.029.242-.039.364-.035.39-.059.779-.059 1.171 0 .474.029.94.079 1.401.014.132.042.26.06.391.046.329.095.655.165.976.033.153.078.301.117.452.075.292.153.581.247.864.054.163.116.321.176.481.098.26.201.518.315.77a13.717 13.717 0 0 0 .922 1.695c.129.199.265.392.404.584.126.174.251.348.386.516.142.176.293.344.444.512.147.165.29.332.445.489.174.177.362.34.546.506.132.119.254.249.391.363zM47 58c-1.504 0-2.937-.305-4.244-.854l-.084-.037a10.77 10.77 0 0 1-.845-.408c-.084-.044-.164-.095-.246-.142a11.34 11.34 0 0 1-.609-.37l-.229-.155c-.225-.156-.445-.32-.657-.492-.034-.028-.07-.054-.104-.083a11.051 11.051 0 0 1-.752-.683l-.017-.018c-.224-.224-.435-.46-.639-.703-.04-.047-.078-.095-.117-.143a11.187 11.187 0 0 1-.517-.691c-.025-.037-.053-.072-.077-.109a10.57 10.57 0 0 1-.508-.836c-.031-.056-.057-.113-.087-.17a11.17 11.17 0 0 1-.707-1.665c-.025-.077-.055-.152-.078-.229a11.03 11.03 0 0 1-.235-.91c-.02-.095-.036-.191-.053-.287a11.257 11.257 0 0 1-.144-1.018c-.03-.327-.051-.66-.051-.997 0-.357.02-.709.054-1.058.016-.162.044-.32.067-.48.026-.181.049-.363.083-.541.039-.201.09-.4.14-.598.033-.13.063-.26.1-.388.064-.22.139-.437.217-.653.036-.099.07-.199.109-.297.091-.229.19-.455.297-.677a10.872 10.872 0 0 1 .602-1.104 11.752 11.752 0 0 1 .567-.824c.171-.226.35-.446.54-.66.032-.037.066-.072.099-.108.228-.25.466-.489.714-.716l.109-.1c.253-.226.516-.439.787-.639l.095-.071c.287-.208.584-.4.888-.579l.056-.034c.325-.188.658-.359 1-.512l.005-.002a10.951 10.951 0 0 1 3.279-.892l.037-.005a10.965 10.965 0 0 1 6.614 1.401l.01.006c.319.184.629.385.929.601l.068.051c.279.204.549.42.809.651l.096.087c.25.227.491.465.721.716A10.945 10.945 0 0 1 58 47c0 6.065-4.935 11-11 11zm11-34.392v11.783a2.61 2.61 0 0 1-1.779 2.457A12.965 12.965 0 0 0 47 34c-3.665 0-6.974 1.531-9.34 3.979l-.022.021H4.608A2.611 2.611 0 0 1 2 35.392V23.608A2.611 2.611 0 0 1 4.608 21h50.783A2.611 2.611 0 0 1 58 23.608zM4.608 19A2.611 2.611 0 0 1 2 16.392V4.608A2.611 2.611 0 0 1 4.608 2h50.783A2.611 2.611 0 0 1 58 4.608v11.783A2.611 2.611 0 0 1 55.392 19H4.608z"/><path d="M10.5 34c2.481 0 4.5-2.019 4.5-4.5S12.981 25 10.5 25 6 27.019 6 29.5 8.019 34 10.5 34zm0-7c1.378 0 2.5 1.121 2.5 2.5S11.878 32 10.5 32 8 30.879 8 29.5 9.122 27 10.5 27z"/><circle cx="50" cy="28" r="1"/><circle cx="46" cy="28" r="1"/><circle cx="52" cy="31" r="1"/><circle cx="48" cy="31" r="1"/><circle cx="42" cy="28" r="1"/><circle cx="44" cy="31" r="1"/><circle cx="38" cy="28" r="1"/><circle cx="40" cy="31" r="1"/><circle cx="34" cy="28" r="1"/><circle cx="36" cy="31" r="1"/><path d="M10.5 44C8.019 44 6 46.019 6 48.5S8.019 53 10.5 53s4.5-2.019 4.5-4.5-2.019-4.5-4.5-4.5zm0 7C9.122 51 8 49.879 8 48.5S9.122 46 10.5 46s2.5 1.121 2.5 2.5-1.122 2.5-2.5 2.5z"/></svg><svg version="1.1" id="component" x="0" y="0" viewBox="0 0 32 32" xml:space="preserve" xmlns="http://www.w3.org/2000/svg"><style>.st0{fill:none;stroke:#000;stroke-width:2;stroke-linecap:round;stroke-linejoin:round;stroke-miterlimit:10}</style><path d="M29 15c.6 0 1-.4 1-1s-.4-1-1-1h-3v-2h3c.6 0 1-.4 1-1s-.4-1-1-1h-3c0-1.7-1.3-3-3-3V3c0-.6-.4-1-1-1s-1 .4-1 1v3h-2V3c0-.6-.4-1-1-1s-1 .4-1 1v3h-2V3c0-.6-.4-1-1-1s-1 .4-1 1v3h-2V3c0-.6-.4-1-1-1s-1 .4-1 1v3C7.3 6 6 7.3 6 9H3c-.6 0-1 .4-1 1s.4 1 1 1h3v2H3c-.6 0-1 .4-1 1s.4 1 1 1h3v2H3c-.6 0-1 .4-1 1s.4 1 1 1h3v2H3c-.6 0-1 .4-1 1s.4 1 1 1h3c0 1.7 1.3 3 3 3v3c0 .6.4 1 1 1s1-.4 1-1v-3h2v3c0 .6.4 1 1 1s1-.4 1-1v-3h2v3c0 .6.4 1 1 1s1-.4 1-1v-3h2v3c0 .6.4 1 1 1s1-.4 1-1v-3c1.7 0 3-1.3 3-3h3c.6 0 1-.4 1-1s-.4-1-1-1h-3v-2h3c.6 0 1-.4 1-1s-.4-1-1-1h-3v-2h3zm-7 4c0 1.7-1.3 3-3 3h-6c-1.7 0-3-1.3-3-3v-6c0-1.7 1.3-3 3-3h6c1.7 0 3 1.3 3 3v6z"/></svg><svg viewBox="0 0 512 512" xml:space="preserve" id="design" xmlns="http://www.w3.org/2000/svg"><path d="M503.418 440.817h-93.429V187.245c0-12.56-10.218-22.778-22.776-22.778H217.992v-7.911h11.298a8.582 8.582 0 0 0 8.582-8.582V23.465a8.581 8.581 0 0 0-8.582-8.582h-41.98a8.582 8.582 0 0 0-8.582 8.582v124.509a8.581 8.581 0 0 0 8.582 8.582h13.518v7.911H22.776C10.218 164.468 0 174.685 0 187.245v272.318c0 20.707 16.848 37.554 37.554 37.554h439.863c19.069 0 34.582-15.513 34.582-34.582v-13.136a8.581 8.581 0 0 0-8.581-8.582zM195.893 139.392V32.048h24.816v107.345h-24.816zm22.099 79.646v-8.277h145.702v200.927h-317.4V210.761h154.533v8.277a5.823 5.823 0 0 1-5.817 5.815H96.652c-12.672 0-22.981 10.309-22.981 22.981v33.852c0 12.672 10.309 22.98 22.981 22.98h9.631v55.867c0 9.251 4.688 17.644 12.539 22.453 8.049 4.931 17.93 5.282 26.435.943 1.316-.672 3.505-1.565 7.285-1.565 6.264 0 8.904 2.245 13.279 5.965 4.989 4.243 11.823 10.055 24.398 10.055 12.574 0 19.408-5.812 24.397-10.055 4.375-3.72 7.016-5.965 13.279-5.965 6.265 0 8.906 2.245 13.281 5.966 4.99 4.243 11.824 10.054 24.4 10.054 12.576 0 19.41-5.811 24.4-10.054 1.752-1.49 3.408-2.897 5.115-3.914 10.33-6.148 16.748-17.533 16.748-29.71v-13.137h8.787c14.31 0 25.951-11.641 25.951-25.951V276.55c0-14.308-11.641-25.951-25.951-25.951H132.233c-14.31 0-25.951 11.641-25.951 25.951v10.952h-9.631a5.823 5.823 0 0 1-5.817-5.817v-33.852a5.824 5.824 0 0 1 5.817-5.817h98.358c12.673.002 22.983-10.308 22.983-22.978zm-91.684 68.464h-2.861V276.55c0-4.844 3.941-8.786 8.786-8.786s8.786 3.941 8.786 8.786v39.068c0 4.844-3.941 8.786-8.786 8.786s-8.786-3.941-8.786-8.786v-10.951h2.861a8.582 8.582 0 0 0 8.582-8.582 8.581 8.581 0 0 0-8.582-8.583zm30.342-19.738h163.977c4.844 0 8.786 3.941 8.786 8.786v39.068c0 4.844-3.941 8.786-8.786 8.786H156.65a25.823 25.823 0 0 0 1.533-8.786V276.55c0-3.083-.544-6.041-1.533-8.786zm138.025 73.804v13.137c0 6.158-3.204 11.891-8.363 14.96-2.948 1.755-5.343 3.791-7.455 5.588-4.376 3.72-7.017 5.965-13.281 5.965s-8.906-2.245-13.281-5.966c-4.99-4.243-11.824-10.054-24.4-10.054-12.575 0-19.409 5.812-24.398 10.055-4.375 3.72-7.016 5.965-13.279 5.965-6.264 0-8.904-2.245-13.279-5.965-4.989-4.243-11.823-10.055-24.398-10.055-5.614 0-10.549 1.125-15.088 3.441-3.138 1.603-6.753 1.495-9.668-.292-2.757-1.689-4.338-4.536-4.338-7.815v-20.497a25.822 25.822 0 0 0 8.785 1.533h162.443zM17.165 187.245a5.62 5.62 0 0 1 5.612-5.613h178.051v11.965H37.712a8.582 8.582 0 0 0-8.582 8.582V420.27a8.581 8.581 0 0 0 8.582 8.582h334.564a8.582 8.582 0 0 0 8.582-8.582V202.178a8.581 8.581 0 0 0-8.582-8.582H217.992v-11.965h169.22a5.619 5.619 0 0 1 5.612 5.613v253.572H17.165V187.245zm20.389 292.707c-11.243 0-20.389-9.148-20.389-20.391v-1.58h84.846v4.553a34.362 34.362 0 0 0 4.725 17.418H37.554zm439.864 0H136.592c-9.604 0-17.417-7.813-17.417-17.418v-4.553h375.659v4.553h.001c0 9.605-7.813 17.418-17.417 17.418z"/></svg><svg viewBox="0 0 502.664 502.664" xml:space="preserve" id="icon" xmlns="http://www.w3.org/2000/svg"><path d="M153.821 358.226 0 274.337v-46.463l153.821-83.414v54.574L46.636 250.523l107.185 53.431v54.272zm26.273 29.358L282.103 115.08h32.227L212.084 387.584h-31.99zm168.749-29.358v-54.272l107.164-52.999-107.164-52.59v-53.927l153.821 83.522v46.183l-153.821 84.083z"/></svg><svg xml:space="preserve" viewBox="0 0 419.931 419.931" id="layout" xmlns="http://www.w3.org/2000/svg"><path d="M282.895 352.367a18.64 18.64 0 0 1-5.579-5.25 18.972 18.972 0 0 1-1.771-3.125H28.282V100.276h335.624v159.138c7.165.647 13.177 5.353 15.701 11.797a18.66 18.66 0 0 1 7.344-2.213 18.654 18.654 0 0 1 5.236.293V39.561c0-12.996-10.571-23.569-23.566-23.569H23.568C10.573 15.992 0 26.565 0 39.561v309.146c0 12.996 10.573 23.568 23.568 23.568h257.179a18.522 18.522 0 0 1-1.302-13.066 18.643 18.643 0 0 1 3.45-6.842zm55.13-296.798a8.703 8.703 0 0 1 8.702-8.703h8.702a8.702 8.702 0 0 1 8.702 8.703v9.863a8.702 8.702 0 0 1-8.702 8.702h-8.702a8.701 8.701 0 0 1-8.702-8.702v-9.863zm-40.465 0a8.703 8.703 0 0 1 8.702-8.703h8.703a8.702 8.702 0 0 1 8.702 8.703v9.863a8.702 8.702 0 0 1-8.702 8.702h-8.703a8.702 8.702 0 0 1-8.702-8.702v-9.863zm-40.466 0a8.703 8.703 0 0 1 8.702-8.703h8.702a8.702 8.702 0 0 1 8.703 8.703v9.863a8.702 8.702 0 0 1-8.703 8.702h-8.702a8.703 8.703 0 0 1-8.702-8.702v-9.863z"/><path d="m419.875 335.77-2.615-14.83a3.673 3.673 0 0 0-4.255-2.979l-13.188 2.324a49.468 49.468 0 0 0-6.005-10.38l8.614-10.268a3.672 3.672 0 0 0 .847-2.68 3.682 3.682 0 0 0-1.3-2.494l-11.534-9.68a3.678 3.678 0 0 0-5.176.453l-8.606 10.26a49.3 49.3 0 0 0-11.271-4.104V278a3.675 3.675 0 0 0-3.673-3.674h-15.06A3.675 3.675 0 0 0 342.98 278v13.392a49.253 49.253 0 0 0-11.271 4.104l-8.608-10.259a3.674 3.674 0 0 0-5.175-.453l-11.535 9.679a3.681 3.681 0 0 0-1.299 2.494c-.084.971.22 1.937.846 2.683l8.615 10.266a49.643 49.643 0 0 0-6.005 10.38l-13.188-2.325a3.677 3.677 0 0 0-4.255 2.979l-2.614 14.83a3.671 3.671 0 0 0 2.977 4.255l13.198 2.326a49.466 49.466 0 0 0 2.073 11.812l-11.6 6.695a3.67 3.67 0 0 0-1.345 5.016l7.529 13.041a3.665 3.665 0 0 0 3.18 1.836c.639 0 1.272-.166 1.836-.492l11.609-6.703a49.482 49.482 0 0 0 9.18 7.709l-4.584 12.593c-.332.916-.289 1.926.123 2.809s1.157 1.566 2.072 1.898l14.148 5.149a3.669 3.669 0 0 0 4.708-2.194l4.583-12.593a49.83 49.83 0 0 0 11.988 0l4.584 12.593a3.668 3.668 0 0 0 4.707 2.194l14.15-5.149a3.674 3.674 0 0 0 2.193-4.707l-4.584-12.591a49.756 49.756 0 0 0 9.18-7.709l11.609 6.703a3.683 3.683 0 0 0 2.787.367 3.672 3.672 0 0 0 2.229-1.711l7.529-13.043a3.677 3.677 0 0 0 .367-2.787 3.681 3.681 0 0 0-1.712-2.229l-11.598-6.693a49.482 49.482 0 0 0 2.071-11.812l13.198-2.327a3.664 3.664 0 0 0 2.37-1.511 3.6 3.6 0 0 0 .629-2.745zm-65.691 23.566c-11.155 0-20.2-9.045-20.2-20.201s9.046-20.2 20.2-20.2c11.156 0 20.201 9.044 20.201 20.2s-9.045 20.201-20.201 20.201zM164.695 235.373a12.3 12.3 0 0 0-7.096-11.119l-39.455-18.332 39.456-18.334a12.304 12.304 0 0 0 7.095-11.118v-.319c0-4.21-2.119-8.075-5.665-10.334a12.248 12.248 0 0 0-6.606-1.916c-1.778 0-3.563.391-5.16 1.133l-63.078 29.333a12.303 12.303 0 0 0-7.092 11.117v.877c0 4.743 2.782 9.104 7.093 11.118l63.084 29.336a12.265 12.265 0 0 0 11.759-.786 12.213 12.213 0 0 0 5.666-10.335l-.001-.321zm62.237-101.361a12.301 12.301 0 0 0-9.901-5.03h-.314a12.224 12.224 0 0 0-11.679 8.516l-41.56 128.772a12.317 12.317 0 0 0 1.781 10.962 12.306 12.306 0 0 0 9.901 5.029h.315a12.217 12.217 0 0 0 11.672-8.516l41.555-128.762a12.29 12.29 0 0 0-1.77-10.971zm81.069 60.354-63.079-29.333a12.303 12.303 0 0 0-5.152-1.131c-2.358 0-4.644.661-6.605 1.912a12.2 12.2 0 0 0-5.671 10.337v.319c0 4.746 2.783 9.111 7.097 11.123l39.454 18.33-39.455 18.331a12.3 12.3 0 0 0-7.096 11.119v.321c0 4.205 2.119 8.066 5.669 10.336a12.25 12.25 0 0 0 6.595 1.923c1.792 0 3.527-.383 5.169-1.141l63.082-29.336c4.307-2.009 7.088-6.371 7.088-11.114v-.877a12.313 12.313 0 0 0-7.096-11.119z"/></svg><svg xml:space="preserve" viewBox="0 0 210 256" id="mobile-app" xmlns="http://www.w3.org/2000/svg"><path d="M174.55 144.5c-1.4-4-5-6.5-9.2-6.5H159V23c0-11.708-9.292-21-21-21H25C12.57 2 2 12.57 2 25v183c0 11.9 10.95 22 22.75 22h114.213c1.207 0 2.27.984 2.18 2.188-.095 1.266-1.153 1.812-2.393 1.812h-45.5L128 254h80l-33.45-109.5zm-92.5 75.7c-3.199 0-5.599-2.399-5.6-5.598-.001-3.045 2.557-5.602 5.602-5.602 3.199.001 5.598 2.401 5.598 5.6-.1 3.2-2.4 5.6-5.6 5.6zM144 138h-19.65c-5.3 0-9.8 4.7-9.8 10s4.5 10 9.8 10h19.8v42H18V31h126v107zM99.8 65.278c0-4.814 3.935-8.749 8.749-8.749s8.749 3.935 8.749 8.749-3.859 8.749-8.749 8.749c-4.852 0-8.749-3.935-8.749-8.749zm30.105-21.662v86l-97.805-.038V43.616h97.805zm-5.845 5.96H38.098v63.191l26.285-50.011 17.918 36.677 17.804-11.729 23.955 22.732v-60.86z"/></svg><svg viewBox="0 0 264 264" xml:space="preserve" id="spa" xmlns="http://www.w3.org/2000/svg"><path d="M246.997 33H17.926C8.225 33 0 40.892 0 50.593v163.071C0 223.385 8.06 231 17.926 231h229.071c9.721 0 17.003-7.615 17.003-17.336V50.593C264 40.728 256.718 33 246.997 33zM60.226 43.025c3.554 0 6.444 2.891 6.444 6.444s-2.891 6.444-6.444 6.444-6.444-2.891-6.444-6.444 2.89-6.444 6.444-6.444zm-18.5 0c3.554 0 6.444 2.891 6.444 6.444s-2.891 6.444-6.444 6.444-6.444-2.891-6.444-6.444 2.89-6.444 6.444-6.444zm-18.5 0c3.554 0 6.444 2.891 6.444 6.444s-2.891 6.444-6.444 6.444-6.444-2.891-6.444-6.444 2.89-6.444 6.444-6.444zM248 214.5c0 .276.109.5-.167.5H16V66.5c0-.276.557-.5.833-.5h231c.276 0 .167.224.167.5v148zM241.889 56h-70c-3.554 0-6.444-2.91-6.444-6.487s2.891-6.487 6.444-6.487l70 .022c3.554 0 6.444 2.9 6.444 6.466 0 3.576-2.891 6.486-6.444 6.486z"/><path d="M188.842 113.227a7.5 7.5 0 0 0-3.669-7.455l-48.919-28.596c-1.145-.665-2.445-1.176-3.77-1.176h-.121c-1.321 0-2.619.509-3.762 1.172l-49.342 28.6c-2.344 1.362-3.378 3.822-3.557 6.333-.042.075 0 56.627 0 56.627a7.5 7.5 0 0 0 3.738 6.505l49.037 28.432a7.488 7.488 0 0 0 3.762 1.012c.031 0 .062-.006.093-.006s.061.006.093.006c1.3 0 2.599-.338 3.762-1.012l49.037-28.434a7.5 7.5 0 0 0 3.738-6.505l-.12-55.503zm-64.074 70.951-34.056-19.745.085-39.177 34.015 19.724-.044 39.198zm7.563-52.177-34.054-19.747 10.73-6.222 34.012 19.77-10.688 6.199zm7.566 52.177-.045-39.198 11.245-6.521.088 39.174-11.288 6.545zm-15.946-86.811 8.468-4.91 34.012 19.771-8.469 4.91-34.011-19.771zm42.215 71.579-.088-39.175 7.79-4.518.085 39.177-7.787 4.516z"/></svg><svg viewBox="0 0 502.688 502.688" xml:space="preserve" id="turnkey" xmlns="http://www.w3.org/2000/svg"><path d="M283.4 7.97c-120.883 0-219.245 98.363-219.245 219.267 0 43.573 12.921 84.083 34.923 118.251l-89.001 87.599.194.237c-13.741 14.215-13.741 36.821.28 50.778 13.935 14.064 36.584 14.129 50.821.345l.216.28 86.65-85.205c37.296 29.336 84.191 47.024 135.206 47.024 120.883 0 219.245-98.363 219.245-219.267C502.645 106.333 404.283 7.97 283.4 7.97zM46.639 470.771c-6.277 6.212-16.415 6.234-22.736-.065-6.212-6.277-6.256-16.415 0-22.649s16.394-6.277 22.671-.022c6.256 6.278 6.256 16.438.065 22.736zm369.249-273.862c-2.351 16.48-30.587 35.29-23.534 51.748 7.054 16.459-4.702 35.268-4.702 35.268s-11.756 54.078-18.81 61.132c-7.054 7.054-49.375 25.885-39.992 37.641 9.448 11.735 37.619-2.33 65.856-9.426a196.278 196.278 0 0 0 20.6-6.385c-34.492 32.593-80.847 52.719-131.905 52.719-43.508 0-83.565-14.711-115.835-39.151l75.627-74.376 99.42-.28L369.769 204.2l-10.785-10.893-53.949 54.078-52.762-52.719 53.992-54.013-10.785-10.85-101.62 27.265-.324 96.637-.582-.582-74.225 73.039c-13.158-21.808-22.067-46.334-25.691-72.629 16.308-8.499 42.861-22.779 52.417-30.717 14.086-11.756-4.746-16.459-7.054-23.534-2.351-7.054 0-23.512 0-39.971 0-16.48 32.874-16.502 44.63-32.939 8.413-11.713-6.989-37.533-16.588-51.554 32.442-24.957 72.931-39.992 116.935-39.992 11.648 0 23.016 1.208 34.103 3.214 3.279 20.255 10.052 48.124 23.124 55.394 21.139 11.735 47.046 37.619 56.451 42.322 9.47 4.724 21.161 44.716 18.832 61.153zm28.236 14.129c-11.648-8.348-21.183-44.695-14.107-56.451 4.228-7.097 15.272-13.288 23.426-17.106 14.215 26.812 22.347 57.335 22.347 89.756 0 9.728-.971 19.241-2.351 28.581-4.142-16.544-12.166-32.463-29.315-44.78z"/></svg><svg viewBox="0 0 24 24" id="x" xmlns="http://www.w3.org/2000/svg"><path d="M18 6 6 18M6 6l12 12"/></svg></svg>